<svg xmlns="http://www.w3.org/2000/svg" viewBox="0 0 512 512"><path fill="#19557e" d="M0 0h512v512H0z"/><path d="m31.5 302 28.6-16.5c4.6 8 9.3 12.3 20.4 12.3 14.4 0 18.8-8.2 18.8-17v-98h33v98c0 31.6-22.3 49.1-52 49.1-22.8 0-39.3-9.6-48.8-28ZM246.1 224v103h-30.9v-9.6c-5.5 7.6-15.8 12.6-29.4 12.6-20.8 0-38.6-14.9-38.6-42.7v-63.2h31v58.7c0 12.7 8 18.7 17.9 18.7 11.3 0 19.1-6.6 19.1-21.2v-56.2h31ZM361.5 263.8v63.3h-31v-58.7c0-12.8-8-18.8-17.9-18.8-11.3 0-19.1 6.6-19.1 21.3V327h-31V224h31v9.7c5.5-7.6 15.8-12.6 29.4-12.6 20.8 0 38.6 14.8 38.6 42.7ZM371.3 275.6c0-30.7 24.3-54.4 54.6-54.4s54.6 23.7 54.6 54.4S456.2 330 426 330s-54.6-23.7-54.6-54.4Zm78.3 0c0-14.6-10.3-24.3-23.7-24.3s-23.7 9.6-23.7 24.3 10.3 24.3 23.7 24.3 23.7-9.7 23.7-24.3Z" fill="#fff"/></svg>