<svg id="Layer_1" data-name="Layer 1" xmlns="http://www.w3.org/2000/svg" width="320" height="73" viewBox="0 0 320 73"><defs><style>.cls-1{fill:#34b4c9;}.cls-2{fill:#373737;}</style></defs><title>logo-web</title><path class="cls-1" d="M44.582.487A34.807,34.807,0,0,0,11.869,23.415H77.3A34.813,34.813,0,0,0,44.582.487Z"/><path class="cls-1" d="M44.582,70.079A34.808,34.808,0,0,0,77.3,47.151H11.869A34.807,34.807,0,0,0,44.582,70.079Z"/><circle class="cls-1" cx="11.869" cy="35.284" r="11.869"/><path class="cls-2" d="M137.042,40.378h-15c-6.368,0-9.091,2.664-9.091,8.741V63.767c0,6.138,2.72,8.741,9.091,8.741h15c6.08,0,8.628-2.431,8.628-8.22V61.335c0-.81-.405-1.217-1.272-1.217h-8.221c-.868,0-1.273.405-1.273,1.217h.058v.7c0,1.042-.637,1.564-1.735,1.564H127.9c-3.242,0-3.7-.522-3.7-3.186V52.477c0-2.72.463-3.185,3.7-3.185h5.267c1.1,0,1.736.521,1.736,1.563v.7c0,.81.405,1.217,1.273,1.217H144.4c.867,0,1.272-.405,1.272-1.217V48.6C145.67,42.809,143.064,40.378,137.042,40.378Z"/><path class="cls-2" d="M159.392,40.378h-8.57c-.868,0-1.273.4-1.273,1.217V71.238c0,.81.405,1.217,1.273,1.217h8.57c.867,0,1.272-.405,1.272-1.217V41.6C160.667,40.782,160.259,40.378,159.392,40.378Z"/><path class="cls-2" d="M186.373,40.378h-1.331c-5.675,0-8.569,2.143-9.437,6.543V41.6c0-.81-.405-1.217-1.273-1.217h-7.294c-.868,0-1.273.4-1.273,1.217V71.238c0,.81.405,1.217,1.273,1.217h8.569c.868,0,1.273-.405,1.273-1.217V56.07c0-3.995,2.257-6.774,6.948-6.774h2.548c.868,0,1.273-.4,1.273-1.217V41.6C187.646,40.782,187.241,40.378,186.373,40.378Z"/><path class="cls-2" d="M214.625,40.378h-15c-6.368,0-9.091,2.664-9.091,8.741V63.767c0,6.138,2.72,8.741,9.091,8.741h15c6.08,0,8.628-2.431,8.628-8.22V61.335c0-.81-.4-1.217-1.272-1.217H213.76c-.868,0-1.273.405-1.273,1.217h.058v.7c0,1.042-.637,1.564-1.735,1.564h-5.331c-3.241,0-3.7-.522-3.7-3.186V52.477c0-2.72.463-3.185,3.7-3.185h5.268c1.1,0,1.735.521,1.735,1.563v.7c0,.81.405,1.217,1.273,1.217h8.221c.868,0,1.272-.405,1.272-1.217V48.6C223.253,42.809,220.647,40.378,214.625,40.378Z"/><path class="cls-2" d="M258.977,40.378h-8.57c-.868,0-1.272.4-1.272,1.217V59.6c0,2.664-1.273,4-4.4,4h-2.374c-3.185,0-3.706-.521-3.706-3.185h.058V41.536c0-.809-.405-1.217-1.273-1.217h-8.57a1.116,1.116,0,0,0-1.272,1.217V63.711c0,6.138,2.778,8.742,9.146,8.742h4.863c5.154,0,7.874-2.027,8.8-6.08v4.863c0,.809.405,1.217,1.273,1.217h7.3a1.116,1.116,0,0,0,1.272-1.217V41.6A1.113,1.113,0,0,0,258.977,40.378Z"/><path class="cls-2" d="M274.725,40.378h-8.57c-.868,0-1.273.4-1.273,1.217V71.238c0,.81.4,1.217,1.273,1.217h8.57c.868,0,1.273-.405,1.273-1.217V41.6C276,40.782,275.593,40.378,274.725,40.378Z"/><path class="cls-2" d="M304.019,40.378H280.165a1.116,1.116,0,0,0-1.273,1.217v6.484a1.117,1.117,0,0,0,1.273,1.217h6.022V63.772c0,6.138,2.778,8.741,9.146,8.741h8.684c.868,0,1.273-.405,1.273-1.217V64.812c0-.81-.405-1.217-1.273-1.217h-4.805c-1.273,0-1.91-.58-1.91-1.794V49.294h6.715c.868,0,1.273-.4,1.273-1.217V41.592C305.3,40.782,304.89,40.378,304.019,40.378Z"/><path class="cls-2" d="M122.916,36.962c6.369,0,9.091-2.664,9.091-8.742V13.573c0-6.138-2.72-8.742-9.146-8.742h-5.848c-5.154,0-7.932,2.085-8.8,6.138V6.048c0-.81-.4-1.217-1.272-1.217h-7.3c-.868,0-1.273.4-1.273,1.217v37.4c0,.81.405,1.217,1.273,1.217h8.57c.868,0,1.272-.4,1.272-1.217V32.85c1.273,2.72,3.879,4.112,8.107,4.112ZM113.942,28.1c-3.186,0-4.458-1.389-4.458-4V17.74c0-2.664,1.272-3.995,4.458-3.995h3.241c3.241,0,3.707.521,3.707,3.185v7.932c0,2.665-.463,3.128-3.707,3.242Z"/><path class="cls-2" d="M145.033,36.9h14.938c6.08,0,8.628-2.432,8.628-8.221V26.656c0-.809-.405-1.217-1.273-1.217H159.1c-.868,0-1.273.405-1.273,1.217v.233c0,.868-.405,1.217-1.272,1.217h-5.731c-3.242,0-3.7-.521-3.7-3.185V23.415h20.265c.868,0,1.272-.4,1.272-1.217V13.052c0-5.79-2.606-8.221-8.627-8.221h-15c-6.368,0-9.091,2.664-9.091,8.742V28.162C135.944,34.3,138.664,36.9,145.033,36.9ZM147,16.814c0-2.72.463-3.186,3.707-3.186h5.154c1.1,0,1.736.522,1.736,1.564v3.127H147Z"/><path class="cls-2" d="M174.388,36.9h8.57c.867,0,1.272-.405,1.272-1.217V20.518c0-4,2.257-6.773,6.948-6.773h2.548c.868,0,1.273-.4,1.273-1.217V6.045c0-.809-.405-1.217-1.273-1.217H192.4c-5.675,0-8.57,2.144-9.437,6.544V6.045c0-.809-.405-1.217-1.273-1.217h-7.3c-.868,0-1.272.4-1.272,1.217V35.689C173.113,36.5,173.52,36.9,174.388,36.9Z"/><path class="cls-2" d="M190.773,20.462v6.485c0,.81.405,1.217,1.273,1.217h6.369V35.75c0,.809.4,1.217,1.272,1.217h8.57c.868,0,1.273-.405,1.273-1.217V28.164h7.352c.868,0,1.273-.405,1.273-1.217V20.462c0-.809-.405-1.217-1.273-1.217h-7.294V16.93c0-2.72.463-3.185,3.762-3.185h3.532c.868,0,1.273-.4,1.273-1.217V6.045c0-.809-.405-1.217-1.273-1.217h-8.741c-6.369,0-9.726,3.242-9.726,9.322v5.1h-6.369C191.178,19.245,190.773,19.65,190.773,20.462Z"/><path class="cls-2" d="M246.238,36.9c6.08,0,8.627-2.432,8.627-8.221V26.656c0-.809-.4-1.217-1.272-1.217h-8.221c-.868,0-1.273.405-1.273,1.217v.233c0,.868-.4,1.217-1.272,1.217h-5.736c-3.241,0-3.707-.521-3.707-3.185V23.415h20.264c.868,0,1.273-.4,1.273-1.217V13.052c0-5.79-2.606-8.221-8.628-8.221h-15c-6.369,0-9.091,2.664-9.091,8.742V28.162c0,6.138,2.72,8.742,9.091,8.742Zm-12.912-20.09c0-2.72.463-3.186,3.707-3.186h5.154c1.1,0,1.735.522,1.735,1.564v3.127h-10.6Z"/><path class="cls-2" d="M282.6,36.9c6.08,0,8.628-2.432,8.628-8.221V25.73c0-.809-.4-1.217-1.273-1.217h-8.221c-.868,0-1.272.4-1.272,1.217v.752c0,1.042-.638,1.563-1.736,1.563H273.4c-3.241,0-3.707-.521-3.707-3.185V16.93c0-2.72.463-3.185,3.707-3.185h5.326c1.1,0,1.736.521,1.736,1.563V16c0,.81.4,1.217,1.272,1.217h8.221c.868,0,1.273-.405,1.273-1.217V13.052c0-5.79-2.606-8.221-8.628-8.221h-15c-6.368,0-9.09,2.664-9.09,8.742V28.162c0,6.138,2.72,8.742,9.09,8.742Z"/><path class="cls-2" d="M318.727,13.745c.868,0,1.273-.4,1.273-1.217V6.045c0-.809-.4-1.217-1.273-1.217H294.873A1.117,1.117,0,0,0,293.6,6.045V12.53a1.117,1.117,0,0,0,1.273,1.217H300.9V28.222c0,6.139,2.778,8.742,9.146,8.742h8.684c.868,0,1.273-.405,1.273-1.217V29.262c0-.809-.4-1.217-1.273-1.217H313.92c-1.273,0-1.91-.579-1.91-1.793V13.745Z"/></svg>