<?xml version="1.0" encoding="utf-8" standalone="no"?>
<!DOCTYPE svg PUBLIC "-//W3C//DTD SVG 1.1//EN"
  "http://www.w3.org/Graphics/SVG/1.1/DTD/svg11.dtd">
<svg xmlns:xlink="http://www.w3.org/1999/xlink" width="756pt" height="540pt" viewBox="0 0 756 540" xmlns="http://www.w3.org/2000/svg" version="1.1">
 <metadata>
  <rdf:RDF xmlns:dc="http://purl.org/dc/elements/1.1/" xmlns:cc="http://creativecommons.org/ns#" xmlns:rdf="http://www.w3.org/1999/02/22-rdf-syntax-ns#">
   <cc:Work>
    <dc:type rdf:resource="http://purl.org/dc/dcmitype/StillImage"/>
    <dc:date>2026-06-15T16:10:47.944963</dc:date>
    <dc:format>image/svg+xml</dc:format>
    <dc:creator>
     <cc:Agent>
      <dc:title>Matplotlib v3.10.9, https://matplotlib.org/</dc:title>
     </cc:Agent>
    </dc:creator>
   </cc:Work>
  </rdf:RDF>
 </metadata>
 <defs>
  <style type="text/css">*{stroke-linejoin: round; stroke-linecap: butt}</style>
 </defs>
 <g id="figure_1">
  <g id="patch_1">
   <path d="M 0 540 
L 756 540 
L 756 0 
L 0 0 
z
" style="fill: #ffffff"/>
  </g>
  <g id="axes_1">
   <g id="patch_2">
    <path d="M 50.87 438.64 
L 745.2 438.64 
L 745.2 26.88 
L 50.87 26.88 
z
" style="fill: #ffffff"/>
   </g>
   <g id="patch_3">
    <path d="M 82.430455 438.64 
L 89.685731 438.64 
L 89.685731 353.666924 
L 82.430455 353.666924 
z
" clip-path="url(#p8b999d71da)" style="fill: #1f77b4"/>
   </g>
   <g id="patch_4">
    <path d="M 125.962116 438.64 
L 133.217393 438.64 
L 133.217393 343.441981 
L 125.962116 343.441981 
z
" clip-path="url(#p8b999d71da)" style="fill: #1f77b4"/>
   </g>
   <g id="patch_5">
    <path d="M 169.493777 438.64 
L 176.749054 438.64 
L 176.749054 334.745006 
L 169.493777 334.745006 
z
" clip-path="url(#p8b999d71da)" style="fill: #1f77b4"/>
   </g>
   <g id="patch_6">
    <path d="M 213.025439 438.64 
L 220.280716 438.64 
L 220.280716 373.253907 
L 213.025439 373.253907 
z
" clip-path="url(#p8b999d71da)" style="fill: #1f77b4"/>
   </g>
   <g id="patch_7">
    <path d="M 256.5571 438.64 
L 263.812377 438.64 
L 263.812377 360.140617 
L 256.5571 360.140617 
z
" clip-path="url(#p8b999d71da)" style="fill: #1f77b4"/>
   </g>
   <g id="patch_8">
    <path d="M 300.088762 438.64 
L 307.344039 438.64 
L 307.344039 366.504935 
L 300.088762 366.504935 
z
" clip-path="url(#p8b999d71da)" style="fill: #1f77b4"/>
   </g>
   <g id="patch_9">
    <path d="M 343.620423 438.64 
L 350.8757 438.64 
L 350.8757 351.273079 
L 343.620423 351.273079 
z
" clip-path="url(#p8b999d71da)" style="fill: #1f77b4"/>
   </g>
   <g id="patch_10">
    <path d="M 387.152085 438.64 
L 394.407362 438.64 
L 394.407362 373.224961 
L 387.152085 373.224961 
z
" clip-path="url(#p8b999d71da)" style="fill: #1f77b4"/>
   </g>
   <g id="patch_11">
    <path d="M 430.683746 438.64 
L 437.939023 438.64 
L 437.939023 377.931864 
L 430.683746 377.931864 
z
" clip-path="url(#p8b999d71da)" style="fill: #1f77b4"/>
   </g>
   <g id="patch_12">
    <path d="M 474.215408 438.64 
L 481.470684 438.64 
L 481.470684 364.04375 
L 474.215408 364.04375 
z
" clip-path="url(#p8b999d71da)" style="fill: #1f77b4"/>
   </g>
   <g id="patch_13">
    <path d="M 517.747069 438.64 
L 525.002346 438.64 
L 525.002346 393.79882 
L 517.747069 393.79882 
z
" clip-path="url(#p8b999d71da)" style="fill: #1f77b4"/>
   </g>
   <g id="patch_14">
    <path d="M 561.27873 438.64 
L 568.534007 438.64 
L 568.534007 369.938149 
L 561.27873 369.938149 
z
" clip-path="url(#p8b999d71da)" style="fill: #1f77b4"/>
   </g>
   <g id="patch_15">
    <path d="M 604.810392 438.64 
L 612.065669 438.64 
L 612.065669 364.375967 
L 604.810392 364.375967 
z
" clip-path="url(#p8b999d71da)" style="fill: #1f77b4"/>
   </g>
   <g id="patch_16">
    <path d="M 648.342053 438.64 
L 655.59733 438.64 
L 655.59733 355.978996 
L 648.342053 355.978996 
z
" clip-path="url(#p8b999d71da)" style="fill: #1f77b4"/>
   </g>
   <g id="patch_17">
    <path d="M 691.873715 438.64 
L 699.128992 438.64 
L 699.128992 361.626042 
L 691.873715 361.626042 
z
" clip-path="url(#p8b999d71da)" style="fill: #1f77b4"/>
   </g>
   <g id="patch_18">
    <path d="M 89.685731 438.64 
L 96.941008 438.64 
L 96.941008 319.438135 
L 89.685731 319.438135 
z
" clip-path="url(#p8b999d71da)" style="fill: #ff7f0e"/>
   </g>
   <g id="patch_19">
    <path d="M 133.217393 438.64 
L 140.47267 438.64 
L 140.47267 309.644146 
L 133.217393 309.644146 
z
" clip-path="url(#p8b999d71da)" style="fill: #ff7f0e"/>
   </g>
   <g id="patch_20">
    <path d="M 176.749054 438.64 
L 184.004331 438.64 
L 184.004331 291.499879 
L 176.749054 291.499879 
z
" clip-path="url(#p8b999d71da)" style="fill: #ff7f0e"/>
   </g>
   <g id="patch_21">
    <path d="M 220.280716 438.64 
L 227.535993 438.64 
L 227.535993 349.974887 
L 220.280716 349.974887 
z
" clip-path="url(#p8b999d71da)" style="fill: #ff7f0e"/>
   </g>
   <g id="patch_22">
    <path d="M 263.812377 438.64 
L 271.067654 438.64 
L 271.067654 331.860761 
L 263.812377 331.860761 
z
" clip-path="url(#p8b999d71da)" style="fill: #ff7f0e"/>
   </g>
   <g id="patch_23">
    <path d="M 307.344039 438.64 
L 314.599316 438.64 
L 314.599316 344.955952 
L 307.344039 344.955952 
z
" clip-path="url(#p8b999d71da)" style="fill: #ff7f0e"/>
   </g>
   <g id="patch_24">
    <path d="M 350.8757 438.64 
L 358.130977 438.64 
L 358.130977 311.687009 
L 350.8757 311.687009 
z
" clip-path="url(#p8b999d71da)" style="fill: #ff7f0e"/>
   </g>
   <g id="patch_25">
    <path d="M 394.407362 438.64 
L 401.662638 438.64 
L 401.662638 353.296211 
L 394.407362 353.296211 
z
" clip-path="url(#p8b999d71da)" style="fill: #ff7f0e"/>
   </g>
   <g id="patch_26">
    <path d="M 437.939023 438.64 
L 445.1943 438.64 
L 445.1943 346.712895 
L 437.939023 346.712895 
z
" clip-path="url(#p8b999d71da)" style="fill: #ff7f0e"/>
   </g>
   <g id="patch_27">
    <path d="M 481.470684 438.64 
L 488.725961 438.64 
L 488.725961 344.23172 
L 481.470684 344.23172 
z
" clip-path="url(#p8b999d71da)" style="fill: #ff7f0e"/>
   </g>
   <g id="patch_28">
    <path d="M 525.002346 438.64 
L 532.257623 438.64 
L 532.257623 373.955661 
L 525.002346 373.955661 
z
" clip-path="url(#p8b999d71da)" style="fill: #ff7f0e"/>
   </g>
   <g id="patch_29">
    <path d="M 568.534007 438.64 
L 575.789284 438.64 
L 575.789284 354.652782 
L 568.534007 354.652782 
z
" clip-path="url(#p8b999d71da)" style="fill: #ff7f0e"/>
   </g>
   <g id="patch_30">
    <path d="M 612.065669 438.64 
L 619.320946 438.64 
L 619.320946 278.914913 
L 612.065669 278.914913 
z
" clip-path="url(#p8b999d71da)" style="fill: #ff7f0e"/>
   </g>
   <g id="patch_31">
    <path d="M 655.59733 438.64 
L 662.852607 438.64 
L 662.852607 319.59474 
L 655.59733 319.59474 
z
" clip-path="url(#p8b999d71da)" style="fill: #ff7f0e"/>
   </g>
   <g id="patch_32">
    <path d="M 699.128992 438.64 
L 706.384269 438.64 
L 706.384269 321.258828 
L 699.128992 321.258828 
z
" clip-path="url(#p8b999d71da)" style="fill: #ff7f0e"/>
   </g>
   <g id="patch_33">
    <path d="M 96.941008 438.64 
L 104.196285 438.64 
L 104.196285 133.871316 
L 96.941008 133.871316 
z
" clip-path="url(#p8b999d71da)" style="fill: #2ca02c"/>
   </g>
   <g id="patch_34">
    <path d="M 140.47267 438.64 
L 147.727947 438.64 
L 147.727947 98.560161 
L 140.47267 98.560161 
z
" clip-path="url(#p8b999d71da)" style="fill: #2ca02c"/>
   </g>
   <g id="patch_35">
    <path d="M 184.004331 438.64 
L 191.259608 438.64 
L 191.259608 64.079168 
L 184.004331 64.079168 
z
" clip-path="url(#p8b999d71da)" style="fill: #2ca02c"/>
   </g>
   <g id="patch_36">
    <path d="M 227.535993 438.64 
L 234.79127 438.64 
L 234.79127 187.288248 
L 227.535993 187.288248 
z
" clip-path="url(#p8b999d71da)" style="fill: #2ca02c"/>
   </g>
   <g id="patch_37">
    <path d="M 271.067654 438.64 
L 278.322931 438.64 
L 278.322931 176.923698 
L 271.067654 176.923698 
z
" clip-path="url(#p8b999d71da)" style="fill: #2ca02c"/>
   </g>
   <g id="patch_38">
    <path d="M 314.599316 438.64 
L 321.854592 438.64 
L 321.854592 180.953992 
L 314.599316 180.953992 
z
" clip-path="url(#p8b999d71da)" style="fill: #2ca02c"/>
   </g>
   <g id="patch_39">
    <path d="M 358.130977 438.64 
L 365.386254 438.64 
L 365.386254 121.689016 
L 358.130977 121.689016 
z
" clip-path="url(#p8b999d71da)" style="fill: #2ca02c"/>
   </g>
   <g id="patch_40">
    <path d="M 401.662638 438.64 
L 408.917915 438.64 
L 408.917915 171.824888 
L 401.662638 171.824888 
z
" clip-path="url(#p8b999d71da)" style="fill: #2ca02c"/>
   </g>
   <g id="patch_41">
    <path d="M 445.1943 438.64 
L 452.449577 438.64 
L 452.449577 216.008559 
L 445.1943 216.008559 
z
" clip-path="url(#p8b999d71da)" style="fill: #2ca02c"/>
   </g>
   <g id="patch_42">
    <path d="M 488.725961 438.64 
L 495.981238 438.64 
L 495.981238 203.150511 
L 488.725961 203.150511 
z
" clip-path="url(#p8b999d71da)" style="fill: #2ca02c"/>
   </g>
   <g id="patch_43">
    <path d="M 532.257623 438.64 
L 539.5129 438.64 
L 539.5129 261.565589 
L 532.257623 261.565589 
z
" clip-path="url(#p8b999d71da)" style="fill: #2ca02c"/>
   </g>
   <g id="patch_44">
    <path d="M 575.789284 438.64 
L 583.044561 438.64 
L 583.044561 208.050182 
L 575.789284 208.050182 
z
" clip-path="url(#p8b999d71da)" style="fill: #2ca02c"/>
   </g>
   <g id="patch_45">
    <path d="M 619.320946 438.64 
L 626.576223 438.64 
L 626.576223 46.487619 
L 619.320946 46.487619 
z
" clip-path="url(#p8b999d71da)" style="fill: #2ca02c"/>
   </g>
   <g id="patch_46">
    <path d="M 662.852607 438.64 
L 670.107884 438.64 
L 670.107884 125.478112 
L 662.852607 125.478112 
z
" clip-path="url(#p8b999d71da)" style="fill: #2ca02c"/>
   </g>
   <g id="patch_47">
    <path d="M 706.384269 438.64 
L 713.639545 438.64 
L 713.639545 140.718528 
L 706.384269 140.718528 
z
" clip-path="url(#p8b999d71da)" style="fill: #2ca02c"/>
   </g>
   <g id="matplotlib.axis_1">
    <g id="xtick_1">
     <g id="line2d_1">
      <defs>
       <path id="m2811b54b6c" d="M 0 0 
L 0 3.5 
" style="stroke: #000000; stroke-width: 0.8"/>
      </defs>
      <g>
       <use xlink:href="#m2811b54b6c" x="93.31337" y="438.64" style="stroke: #000000; stroke-width: 0.8"/>
      </g>
     </g>
     <g id="text_1">
      <!-- Blown -->
      <g transform="translate(91.233682 475.913437) rotate(-90) scale(0.1 -0.1)">
       <defs>
        <path id="DejaVuSans-42" d="M 1259 2228 
L 1259 519 
L 2272 519 
Q 2781 519 3026 730 
Q 3272 941 3272 1375 
Q 3272 1813 3026 2020 
Q 2781 2228 2272 2228 
L 1259 2228 
z
M 1259 4147 
L 1259 2741 
L 2194 2741 
Q 2656 2741 2882 2914 
Q 3109 3088 3109 3444 
Q 3109 3797 2882 3972 
Q 2656 4147 2194 4147 
L 1259 4147 
z
M 628 4666 
L 2241 4666 
Q 2963 4666 3353 4366 
Q 3744 4066 3744 3513 
Q 3744 3084 3544 2831 
Q 3344 2578 2956 2516 
Q 3422 2416 3680 2098 
Q 3938 1781 3938 1306 
Q 3938 681 3513 340 
Q 3088 0 2303 0 
L 628 0 
L 628 4666 
z
" transform="scale(0.015625)"/>
        <path id="DejaVuSans-6c" d="M 603 4863 
L 1178 4863 
L 1178 0 
L 603 0 
L 603 4863 
z
" transform="scale(0.015625)"/>
        <path id="DejaVuSans-6f" d="M 1959 3097 
Q 1497 3097 1228 2736 
Q 959 2375 959 1747 
Q 959 1119 1226 758 
Q 1494 397 1959 397 
Q 2419 397 2687 759 
Q 2956 1122 2956 1747 
Q 2956 2369 2687 2733 
Q 2419 3097 1959 3097 
z
M 1959 3584 
Q 2709 3584 3137 3096 
Q 3566 2609 3566 1747 
Q 3566 888 3137 398 
Q 2709 -91 1959 -91 
Q 1206 -91 779 398 
Q 353 888 353 1747 
Q 353 2609 779 3096 
Q 1206 3584 1959 3584 
z
" transform="scale(0.015625)"/>
        <path id="DejaVuSans-77" d="M 269 3500 
L 844 3500 
L 1563 769 
L 2278 3500 
L 2956 3500 
L 3675 769 
L 4391 3500 
L 4966 3500 
L 4050 0 
L 3372 0 
L 2619 2869 
L 1863 0 
L 1184 0 
L 269 3500 
z
" transform="scale(0.015625)"/>
        <path id="DejaVuSans-6e" d="M 3513 2113 
L 3513 0 
L 2938 0 
L 2938 2094 
Q 2938 2591 2744 2837 
Q 2550 3084 2163 3084 
Q 1697 3084 1428 2787 
Q 1159 2491 1159 1978 
L 1159 0 
L 581 0 
L 581 3500 
L 1159 3500 
L 1159 2956 
Q 1366 3272 1645 3428 
Q 1925 3584 2291 3584 
Q 2894 3584 3203 3211 
Q 3513 2838 3513 2113 
z
" transform="scale(0.015625)"/>
       </defs>
       <use xlink:href="#DejaVuSans-42"/>
       <use xlink:href="#DejaVuSans-6c" transform="translate(68.603516 0)"/>
       <use xlink:href="#DejaVuSans-6f" transform="translate(96.386719 0)"/>
       <use xlink:href="#DejaVuSans-77" transform="translate(157.568359 0)"/>
       <use xlink:href="#DejaVuSans-6e" transform="translate(239.355469 0)"/>
      </g>
     </g>
    </g>
    <g id="xtick_2">
     <g id="line2d_2">
      <g>
       <use xlink:href="#m2811b54b6c" x="136.845031" y="438.64" style="stroke: #000000; stroke-width: 0.8"/>
      </g>
     </g>
     <g id="text_2">
      <!-- Bowed -->
      <g transform="translate(134.765344 479.299375) rotate(-90) scale(0.1 -0.1)">
       <defs>
        <path id="DejaVuSans-65" d="M 3597 1894 
L 3597 1613 
L 953 1613 
Q 991 1019 1311 708 
Q 1631 397 2203 397 
Q 2534 397 2845 478 
Q 3156 559 3463 722 
L 3463 178 
Q 3153 47 2828 -22 
Q 2503 -91 2169 -91 
Q 1331 -91 842 396 
Q 353 884 353 1716 
Q 353 2575 817 3079 
Q 1281 3584 2069 3584 
Q 2775 3584 3186 3129 
Q 3597 2675 3597 1894 
z
M 3022 2063 
Q 3016 2534 2758 2815 
Q 2500 3097 2075 3097 
Q 1594 3097 1305 2825 
Q 1016 2553 972 2059 
L 3022 2063 
z
" transform="scale(0.015625)"/>
        <path id="DejaVuSans-64" d="M 2906 2969 
L 2906 4863 
L 3481 4863 
L 3481 0 
L 2906 0 
L 2906 525 
Q 2725 213 2448 61 
Q 2172 -91 1784 -91 
Q 1150 -91 751 415 
Q 353 922 353 1747 
Q 353 2572 751 3078 
Q 1150 3584 1784 3584 
Q 2172 3584 2448 3432 
Q 2725 3281 2906 2969 
z
M 947 1747 
Q 947 1113 1208 752 
Q 1469 391 1925 391 
Q 2381 391 2643 752 
Q 2906 1113 2906 1747 
Q 2906 2381 2643 2742 
Q 2381 3103 1925 3103 
Q 1469 3103 1208 2742 
Q 947 2381 947 1747 
z
" transform="scale(0.015625)"/>
       </defs>
       <use xlink:href="#DejaVuSans-42"/>
       <use xlink:href="#DejaVuSans-6f" transform="translate(68.603516 0)"/>
       <use xlink:href="#DejaVuSans-77" transform="translate(129.785156 0)"/>
       <use xlink:href="#DejaVuSans-65" transform="translate(211.572266 0)"/>
       <use xlink:href="#DejaVuSans-64" transform="translate(273.095703 0)"/>
      </g>
     </g>
    </g>
    <g id="xtick_3">
     <g id="line2d_3">
      <g>
       <use xlink:href="#m2811b54b6c" x="180.376693" y="438.64" style="stroke: #000000; stroke-width: 0.8"/>
      </g>
     </g>
     <g id="text_3">
      <!-- Feedback FM -->
      <g transform="translate(178.297005 510.819687) rotate(-90) scale(0.1 -0.1)">
       <defs>
        <path id="DejaVuSans-46" d="M 628 4666 
L 3309 4666 
L 3309 4134 
L 1259 4134 
L 1259 2759 
L 3109 2759 
L 3109 2228 
L 1259 2228 
L 1259 0 
L 628 0 
L 628 4666 
z
" transform="scale(0.015625)"/>
        <path id="DejaVuSans-62" d="M 3116 1747 
Q 3116 2381 2855 2742 
Q 2594 3103 2138 3103 
Q 1681 3103 1420 2742 
Q 1159 2381 1159 1747 
Q 1159 1113 1420 752 
Q 1681 391 2138 391 
Q 2594 391 2855 752 
Q 3116 1113 3116 1747 
z
M 1159 2969 
Q 1341 3281 1617 3432 
Q 1894 3584 2278 3584 
Q 2916 3584 3314 3078 
Q 3713 2572 3713 1747 
Q 3713 922 3314 415 
Q 2916 -91 2278 -91 
Q 1894 -91 1617 61 
Q 1341 213 1159 525 
L 1159 0 
L 581 0 
L 581 4863 
L 1159 4863 
L 1159 2969 
z
" transform="scale(0.015625)"/>
        <path id="DejaVuSans-61" d="M 2194 1759 
Q 1497 1759 1228 1600 
Q 959 1441 959 1056 
Q 959 750 1161 570 
Q 1363 391 1709 391 
Q 2188 391 2477 730 
Q 2766 1069 2766 1631 
L 2766 1759 
L 2194 1759 
z
M 3341 1997 
L 3341 0 
L 2766 0 
L 2766 531 
Q 2569 213 2275 61 
Q 1981 -91 1556 -91 
Q 1019 -91 701 211 
Q 384 513 384 1019 
Q 384 1609 779 1909 
Q 1175 2209 1959 2209 
L 2766 2209 
L 2766 2266 
Q 2766 2663 2505 2880 
Q 2244 3097 1772 3097 
Q 1472 3097 1187 3025 
Q 903 2953 641 2809 
L 641 3341 
Q 956 3463 1253 3523 
Q 1550 3584 1831 3584 
Q 2591 3584 2966 3190 
Q 3341 2797 3341 1997 
z
" transform="scale(0.015625)"/>
        <path id="DejaVuSans-63" d="M 3122 3366 
L 3122 2828 
Q 2878 2963 2633 3030 
Q 2388 3097 2138 3097 
Q 1578 3097 1268 2742 
Q 959 2388 959 1747 
Q 959 1106 1268 751 
Q 1578 397 2138 397 
Q 2388 397 2633 464 
Q 2878 531 3122 666 
L 3122 134 
Q 2881 22 2623 -34 
Q 2366 -91 2075 -91 
Q 1284 -91 818 406 
Q 353 903 353 1747 
Q 353 2603 823 3093 
Q 1294 3584 2113 3584 
Q 2378 3584 2631 3529 
Q 2884 3475 3122 3366 
z
" transform="scale(0.015625)"/>
        <path id="DejaVuSans-6b" d="M 581 4863 
L 1159 4863 
L 1159 1991 
L 2875 3500 
L 3609 3500 
L 1753 1863 
L 3688 0 
L 2938 0 
L 1159 1709 
L 1159 0 
L 581 0 
L 581 4863 
z
" transform="scale(0.015625)"/>
        <path id="DejaVuSans-20" transform="scale(0.015625)"/>
        <path id="DejaVuSans-4d" d="M 628 4666 
L 1569 4666 
L 2759 1491 
L 3956 4666 
L 4897 4666 
L 4897 0 
L 4281 0 
L 4281 4097 
L 3078 897 
L 2444 897 
L 1241 4097 
L 1241 0 
L 628 0 
L 628 4666 
z
" transform="scale(0.015625)"/>
       </defs>
       <use xlink:href="#DejaVuSans-46"/>
       <use xlink:href="#DejaVuSans-65" transform="translate(52.019531 0)"/>
       <use xlink:href="#DejaVuSans-65" transform="translate(113.542969 0)"/>
       <use xlink:href="#DejaVuSans-64" transform="translate(175.066406 0)"/>
       <use xlink:href="#DejaVuSans-62" transform="translate(238.542969 0)"/>
       <use xlink:href="#DejaVuSans-61" transform="translate(302.019531 0)"/>
       <use xlink:href="#DejaVuSans-63" transform="translate(363.298828 0)"/>
       <use xlink:href="#DejaVuSans-6b" transform="translate(418.279297 0)"/>
       <use xlink:href="#DejaVuSans-20" transform="translate(476.189453 0)"/>
       <use xlink:href="#DejaVuSans-46" transform="translate(507.976562 0)"/>
       <use xlink:href="#DejaVuSans-4d" transform="translate(565.496094 0)"/>
      </g>
     </g>
    </g>
    <g id="xtick_4">
     <g id="line2d_4">
      <g>
       <use xlink:href="#m2811b54b6c" x="223.908354" y="438.64" style="stroke: #000000; stroke-width: 0.8"/>
      </g>
     </g>
     <g id="text_4">
      <!-- Filter BP -->
      <g transform="translate(221.828667 486.475937) rotate(-90) scale(0.1 -0.1)">
       <defs>
        <path id="DejaVuSans-69" d="M 603 3500 
L 1178 3500 
L 1178 0 
L 603 0 
L 603 3500 
z
M 603 4863 
L 1178 4863 
L 1178 4134 
L 603 4134 
L 603 4863 
z
" transform="scale(0.015625)"/>
        <path id="DejaVuSans-74" d="M 1172 4494 
L 1172 3500 
L 2356 3500 
L 2356 3053 
L 1172 3053 
L 1172 1153 
Q 1172 725 1289 603 
Q 1406 481 1766 481 
L 2356 481 
L 2356 0 
L 1766 0 
Q 1100 0 847 248 
Q 594 497 594 1153 
L 594 3053 
L 172 3053 
L 172 3500 
L 594 3500 
L 594 4494 
L 1172 4494 
z
" transform="scale(0.015625)"/>
        <path id="DejaVuSans-72" d="M 2631 2963 
Q 2534 3019 2420 3045 
Q 2306 3072 2169 3072 
Q 1681 3072 1420 2755 
Q 1159 2438 1159 1844 
L 1159 0 
L 581 0 
L 581 3500 
L 1159 3500 
L 1159 2956 
Q 1341 3275 1631 3429 
Q 1922 3584 2338 3584 
Q 2397 3584 2469 3576 
Q 2541 3569 2628 3553 
L 2631 2963 
z
" transform="scale(0.015625)"/>
        <path id="DejaVuSans-50" d="M 1259 4147 
L 1259 2394 
L 2053 2394 
Q 2494 2394 2734 2622 
Q 2975 2850 2975 3272 
Q 2975 3691 2734 3919 
Q 2494 4147 2053 4147 
L 1259 4147 
z
M 628 4666 
L 2053 4666 
Q 2838 4666 3239 4311 
Q 3641 3956 3641 3272 
Q 3641 2581 3239 2228 
Q 2838 1875 2053 1875 
L 1259 1875 
L 1259 0 
L 628 0 
L 628 4666 
z
" transform="scale(0.015625)"/>
       </defs>
       <use xlink:href="#DejaVuSans-46"/>
       <use xlink:href="#DejaVuSans-69" transform="translate(50.269531 0)"/>
       <use xlink:href="#DejaVuSans-6c" transform="translate(78.052734 0)"/>
       <use xlink:href="#DejaVuSans-74" transform="translate(105.835938 0)"/>
       <use xlink:href="#DejaVuSans-65" transform="translate(145.044922 0)"/>
       <use xlink:href="#DejaVuSans-72" transform="translate(206.568359 0)"/>
       <use xlink:href="#DejaVuSans-20" transform="translate(247.681641 0)"/>
       <use xlink:href="#DejaVuSans-42" transform="translate(279.46875 0)"/>
       <use xlink:href="#DejaVuSans-50" transform="translate(348.072266 0)"/>
      </g>
     </g>
    </g>
    <g id="xtick_5">
     <g id="line2d_5">
      <g>
       <use xlink:href="#m2811b54b6c" x="267.440016" y="438.64" style="stroke: #000000; stroke-width: 0.8"/>
      </g>
     </g>
     <g id="text_5">
      <!-- Kick -->
      <g transform="translate(265.360328 466.265) rotate(-90) scale(0.1 -0.1)">
       <defs>
        <path id="DejaVuSans-4b" d="M 628 4666 
L 1259 4666 
L 1259 2694 
L 3353 4666 
L 4166 4666 
L 1850 2491 
L 4331 0 
L 3500 0 
L 1259 2247 
L 1259 0 
L 628 0 
L 628 4666 
z
" transform="scale(0.015625)"/>
       </defs>
       <use xlink:href="#DejaVuSans-4b"/>
       <use xlink:href="#DejaVuSans-69" transform="translate(65.576172 0)"/>
       <use xlink:href="#DejaVuSans-63" transform="translate(93.359375 0)"/>
       <use xlink:href="#DejaVuSans-6b" transform="translate(148.339844 0)"/>
      </g>
     </g>
    </g>
    <g id="xtick_6">
     <g id="line2d_6">
      <g>
       <use xlink:href="#m2811b54b6c" x="310.971677" y="438.64" style="stroke: #000000; stroke-width: 0.8"/>
      </g>
     </g>
     <g id="text_6">
      <!-- Plucked -->
      <g transform="translate(308.89199 484.213437) rotate(-90) scale(0.1 -0.1)">
       <defs>
        <path id="DejaVuSans-75" d="M 544 1381 
L 544 3500 
L 1119 3500 
L 1119 1403 
Q 1119 906 1312 657 
Q 1506 409 1894 409 
Q 2359 409 2629 706 
Q 2900 1003 2900 1516 
L 2900 3500 
L 3475 3500 
L 3475 0 
L 2900 0 
L 2900 538 
Q 2691 219 2414 64 
Q 2138 -91 1772 -91 
Q 1169 -91 856 284 
Q 544 659 544 1381 
z
M 1991 3584 
L 1991 3584 
z
" transform="scale(0.015625)"/>
       </defs>
       <use xlink:href="#DejaVuSans-50"/>
       <use xlink:href="#DejaVuSans-6c" transform="translate(60.302734 0)"/>
       <use xlink:href="#DejaVuSans-75" transform="translate(88.085938 0)"/>
       <use xlink:href="#DejaVuSans-63" transform="translate(151.464844 0)"/>
       <use xlink:href="#DejaVuSans-6b" transform="translate(206.445312 0)"/>
       <use xlink:href="#DejaVuSans-65" transform="translate(260.730469 0)"/>
       <use xlink:href="#DejaVuSans-64" transform="translate(322.253906 0)"/>
      </g>
     </g>
    </g>
    <g id="xtick_7">
     <g id="line2d_7">
      <g>
       <use xlink:href="#m2811b54b6c" x="354.503339" y="438.64" style="stroke: #000000; stroke-width: 0.8"/>
      </g>
     </g>
     <g id="text_7">
      <!-- Saw Comb -->
      <g transform="translate(352.423651 498.663437) rotate(-90) scale(0.1 -0.1)">
       <defs>
        <path id="DejaVuSans-53" d="M 3425 4513 
L 3425 3897 
Q 3066 4069 2747 4153 
Q 2428 4238 2131 4238 
Q 1616 4238 1336 4038 
Q 1056 3838 1056 3469 
Q 1056 3159 1242 3001 
Q 1428 2844 1947 2747 
L 2328 2669 
Q 3034 2534 3370 2195 
Q 3706 1856 3706 1288 
Q 3706 609 3251 259 
Q 2797 -91 1919 -91 
Q 1588 -91 1214 -16 
Q 841 59 441 206 
L 441 856 
Q 825 641 1194 531 
Q 1563 422 1919 422 
Q 2459 422 2753 634 
Q 3047 847 3047 1241 
Q 3047 1584 2836 1778 
Q 2625 1972 2144 2069 
L 1759 2144 
Q 1053 2284 737 2584 
Q 422 2884 422 3419 
Q 422 4038 858 4394 
Q 1294 4750 2059 4750 
Q 2388 4750 2728 4690 
Q 3069 4631 3425 4513 
z
" transform="scale(0.015625)"/>
        <path id="DejaVuSans-43" d="M 4122 4306 
L 4122 3641 
Q 3803 3938 3442 4084 
Q 3081 4231 2675 4231 
Q 1875 4231 1450 3742 
Q 1025 3253 1025 2328 
Q 1025 1406 1450 917 
Q 1875 428 2675 428 
Q 3081 428 3442 575 
Q 3803 722 4122 1019 
L 4122 359 
Q 3791 134 3420 21 
Q 3050 -91 2638 -91 
Q 1578 -91 968 557 
Q 359 1206 359 2328 
Q 359 3453 968 4101 
Q 1578 4750 2638 4750 
Q 3056 4750 3426 4639 
Q 3797 4528 4122 4306 
z
" transform="scale(0.015625)"/>
        <path id="DejaVuSans-6d" d="M 3328 2828 
Q 3544 3216 3844 3400 
Q 4144 3584 4550 3584 
Q 5097 3584 5394 3201 
Q 5691 2819 5691 2113 
L 5691 0 
L 5113 0 
L 5113 2094 
Q 5113 2597 4934 2840 
Q 4756 3084 4391 3084 
Q 3944 3084 3684 2787 
Q 3425 2491 3425 1978 
L 3425 0 
L 2847 0 
L 2847 2094 
Q 2847 2600 2669 2842 
Q 2491 3084 2119 3084 
Q 1678 3084 1418 2786 
Q 1159 2488 1159 1978 
L 1159 0 
L 581 0 
L 581 3500 
L 1159 3500 
L 1159 2956 
Q 1356 3278 1631 3431 
Q 1906 3584 2284 3584 
Q 2666 3584 2933 3390 
Q 3200 3197 3328 2828 
z
" transform="scale(0.015625)"/>
       </defs>
       <use xlink:href="#DejaVuSans-53"/>
       <use xlink:href="#DejaVuSans-61" transform="translate(63.476562 0)"/>
       <use xlink:href="#DejaVuSans-77" transform="translate(124.755859 0)"/>
       <use xlink:href="#DejaVuSans-20" transform="translate(206.542969 0)"/>
       <use xlink:href="#DejaVuSans-43" transform="translate(238.330078 0)"/>
       <use xlink:href="#DejaVuSans-6f" transform="translate(308.154297 0)"/>
       <use xlink:href="#DejaVuSans-6d" transform="translate(369.335938 0)"/>
       <use xlink:href="#DejaVuSans-62" transform="translate(466.748047 0)"/>
      </g>
     </g>
    </g>
    <g id="xtick_8">
     <g id="line2d_8">
      <g>
       <use xlink:href="#m2811b54b6c" x="398.035" y="438.64" style="stroke: #000000; stroke-width: 0.8"/>
      </g>
     </g>
     <g id="text_8">
      <!-- Saw Swarm -->
      <g transform="translate(395.955313 503.804062) rotate(-90) scale(0.1 -0.1)">
       <use xlink:href="#DejaVuSans-53"/>
       <use xlink:href="#DejaVuSans-61" transform="translate(63.476562 0)"/>
       <use xlink:href="#DejaVuSans-77" transform="translate(124.755859 0)"/>
       <use xlink:href="#DejaVuSans-20" transform="translate(206.542969 0)"/>
       <use xlink:href="#DejaVuSans-53" transform="translate(238.330078 0)"/>
       <use xlink:href="#DejaVuSans-77" transform="translate(301.806641 0)"/>
       <use xlink:href="#DejaVuSans-61" transform="translate(383.59375 0)"/>
       <use xlink:href="#DejaVuSans-72" transform="translate(444.873047 0)"/>
       <use xlink:href="#DejaVuSans-6d" transform="translate(484.236328 0)"/>
      </g>
     </g>
    </g>
    <g id="xtick_9">
     <g id="line2d_9">
      <g>
       <use xlink:href="#m2811b54b6c" x="441.566661" y="438.64" style="stroke: #000000; stroke-width: 0.8"/>
      </g>
     </g>
     <g id="text_9">
      <!-- Triple Saw -->
      <g transform="translate(439.486974 496.274375) rotate(-90) scale(0.1 -0.1)">
       <defs>
        <path id="DejaVuSans-54" d="M -19 4666 
L 3928 4666 
L 3928 4134 
L 2272 4134 
L 2272 0 
L 1638 0 
L 1638 4134 
L -19 4134 
L -19 4666 
z
" transform="scale(0.015625)"/>
        <path id="DejaVuSans-70" d="M 1159 525 
L 1159 -1331 
L 581 -1331 
L 581 3500 
L 1159 3500 
L 1159 2969 
Q 1341 3281 1617 3432 
Q 1894 3584 2278 3584 
Q 2916 3584 3314 3078 
Q 3713 2572 3713 1747 
Q 3713 922 3314 415 
Q 2916 -91 2278 -91 
Q 1894 -91 1617 61 
Q 1341 213 1159 525 
z
M 3116 1747 
Q 3116 2381 2855 2742 
Q 2594 3103 2138 3103 
Q 1681 3103 1420 2742 
Q 1159 2381 1159 1747 
Q 1159 1113 1420 752 
Q 1681 391 2138 391 
Q 2594 391 2855 752 
Q 3116 1113 3116 1747 
z
" transform="scale(0.015625)"/>
       </defs>
       <use xlink:href="#DejaVuSans-54"/>
       <use xlink:href="#DejaVuSans-72" transform="translate(46.333984 0)"/>
       <use xlink:href="#DejaVuSans-69" transform="translate(87.447266 0)"/>
       <use xlink:href="#DejaVuSans-70" transform="translate(115.230469 0)"/>
       <use xlink:href="#DejaVuSans-6c" transform="translate(178.707031 0)"/>
       <use xlink:href="#DejaVuSans-65" transform="translate(206.490234 0)"/>
       <use xlink:href="#DejaVuSans-20" transform="translate(268.013672 0)"/>
       <use xlink:href="#DejaVuSans-53" transform="translate(299.800781 0)"/>
       <use xlink:href="#DejaVuSans-61" transform="translate(363.277344 0)"/>
       <use xlink:href="#DejaVuSans-77" transform="translate(424.556641 0)"/>
      </g>
     </g>
    </g>
    <g id="xtick_10">
     <g id="line2d_10">
      <g>
       <use xlink:href="#m2811b54b6c" x="485.098323" y="438.64" style="stroke: #000000; stroke-width: 0.8"/>
      </g>
     </g>
     <g id="text_10">
      <!-- Triple Sine -->
      <g transform="translate(483.018635 497.236875) rotate(-90) scale(0.1 -0.1)">
       <use xlink:href="#DejaVuSans-54"/>
       <use xlink:href="#DejaVuSans-72" transform="translate(46.333984 0)"/>
       <use xlink:href="#DejaVuSans-69" transform="translate(87.447266 0)"/>
       <use xlink:href="#DejaVuSans-70" transform="translate(115.230469 0)"/>
       <use xlink:href="#DejaVuSans-6c" transform="translate(178.707031 0)"/>
       <use xlink:href="#DejaVuSans-65" transform="translate(206.490234 0)"/>
       <use xlink:href="#DejaVuSans-20" transform="translate(268.013672 0)"/>
       <use xlink:href="#DejaVuSans-53" transform="translate(299.800781 0)"/>
       <use xlink:href="#DejaVuSans-69" transform="translate(363.277344 0)"/>
       <use xlink:href="#DejaVuSans-6e" transform="translate(391.060547 0)"/>
       <use xlink:href="#DejaVuSans-65" transform="translate(454.439453 0)"/>
      </g>
     </g>
    </g>
    <g id="xtick_11">
     <g id="line2d_11">
      <g>
       <use xlink:href="#m2811b54b6c" x="528.629984" y="438.64" style="stroke: #000000; stroke-width: 0.8"/>
      </g>
     </g>
     <g id="text_11">
      <!-- Triple Square -->
      <g transform="translate(526.550297 510.82125) rotate(-90) scale(0.1 -0.1)">
       <defs>
        <path id="DejaVuSans-71" d="M 947 1747 
Q 947 1113 1208 752 
Q 1469 391 1925 391 
Q 2381 391 2643 752 
Q 2906 1113 2906 1747 
Q 2906 2381 2643 2742 
Q 2381 3103 1925 3103 
Q 1469 3103 1208 2742 
Q 947 2381 947 1747 
z
M 2906 525 
Q 2725 213 2448 61 
Q 2172 -91 1784 -91 
Q 1150 -91 751 415 
Q 353 922 353 1747 
Q 353 2572 751 3078 
Q 1150 3584 1784 3584 
Q 2172 3584 2448 3432 
Q 2725 3281 2906 2969 
L 2906 3500 
L 3481 3500 
L 3481 -1331 
L 2906 -1331 
L 2906 525 
z
" transform="scale(0.015625)"/>
       </defs>
       <use xlink:href="#DejaVuSans-54"/>
       <use xlink:href="#DejaVuSans-72" transform="translate(46.333984 0)"/>
       <use xlink:href="#DejaVuSans-69" transform="translate(87.447266 0)"/>
       <use xlink:href="#DejaVuSans-70" transform="translate(115.230469 0)"/>
       <use xlink:href="#DejaVuSans-6c" transform="translate(178.707031 0)"/>
       <use xlink:href="#DejaVuSans-65" transform="translate(206.490234 0)"/>
       <use xlink:href="#DejaVuSans-20" transform="translate(268.013672 0)"/>
       <use xlink:href="#DejaVuSans-53" transform="translate(299.800781 0)"/>
       <use xlink:href="#DejaVuSans-71" transform="translate(363.277344 0)"/>
       <use xlink:href="#DejaVuSans-75" transform="translate(426.753906 0)"/>
       <use xlink:href="#DejaVuSans-61" transform="translate(490.132812 0)"/>
       <use xlink:href="#DejaVuSans-72" transform="translate(551.412109 0)"/>
       <use xlink:href="#DejaVuSans-65" transform="translate(590.275391 0)"/>
      </g>
     </g>
    </g>
    <g id="xtick_12">
     <g id="line2d_12">
      <g>
       <use xlink:href="#m2811b54b6c" x="572.161646" y="438.64" style="stroke: #000000; stroke-width: 0.8"/>
      </g>
     </g>
     <g id="text_12">
      <!-- Triple Triangle -->
      <g transform="translate(570.081958 514.886875) rotate(-90) scale(0.1 -0.1)">
       <defs>
        <path id="DejaVuSans-67" d="M 2906 1791 
Q 2906 2416 2648 2759 
Q 2391 3103 1925 3103 
Q 1463 3103 1205 2759 
Q 947 2416 947 1791 
Q 947 1169 1205 825 
Q 1463 481 1925 481 
Q 2391 481 2648 825 
Q 2906 1169 2906 1791 
z
M 3481 434 
Q 3481 -459 3084 -895 
Q 2688 -1331 1869 -1331 
Q 1566 -1331 1297 -1286 
Q 1028 -1241 775 -1147 
L 775 -588 
Q 1028 -725 1275 -790 
Q 1522 -856 1778 -856 
Q 2344 -856 2625 -561 
Q 2906 -266 2906 331 
L 2906 616 
Q 2728 306 2450 153 
Q 2172 0 1784 0 
Q 1141 0 747 490 
Q 353 981 353 1791 
Q 353 2603 747 3093 
Q 1141 3584 1784 3584 
Q 2172 3584 2450 3431 
Q 2728 3278 2906 2969 
L 2906 3500 
L 3481 3500 
L 3481 434 
z
" transform="scale(0.015625)"/>
       </defs>
       <use xlink:href="#DejaVuSans-54"/>
       <use xlink:href="#DejaVuSans-72" transform="translate(46.333984 0)"/>
       <use xlink:href="#DejaVuSans-69" transform="translate(87.447266 0)"/>
       <use xlink:href="#DejaVuSans-70" transform="translate(115.230469 0)"/>
       <use xlink:href="#DejaVuSans-6c" transform="translate(178.707031 0)"/>
       <use xlink:href="#DejaVuSans-65" transform="translate(206.490234 0)"/>
       <use xlink:href="#DejaVuSans-20" transform="translate(268.013672 0)"/>
       <use xlink:href="#DejaVuSans-54" transform="translate(299.800781 0)"/>
       <use xlink:href="#DejaVuSans-72" transform="translate(346.134766 0)"/>
       <use xlink:href="#DejaVuSans-69" transform="translate(387.248047 0)"/>
       <use xlink:href="#DejaVuSans-61" transform="translate(415.03125 0)"/>
       <use xlink:href="#DejaVuSans-6e" transform="translate(476.310547 0)"/>
       <use xlink:href="#DejaVuSans-67" transform="translate(539.689453 0)"/>
       <use xlink:href="#DejaVuSans-6c" transform="translate(603.166016 0)"/>
       <use xlink:href="#DejaVuSans-65" transform="translate(630.949219 0)"/>
      </g>
     </g>
    </g>
    <g id="xtick_13">
     <g id="line2d_13">
      <g>
       <use xlink:href="#m2811b54b6c" x="615.693307" y="438.64" style="stroke: #000000; stroke-width: 0.8"/>
      </g>
     </g>
     <g id="text_13">
      <!-- Twin Peaks -->
      <g transform="translate(613.61362 499.518125) rotate(-90) scale(0.1 -0.1)">
       <defs>
        <path id="DejaVuSans-73" d="M 2834 3397 
L 2834 2853 
Q 2591 2978 2328 3040 
Q 2066 3103 1784 3103 
Q 1356 3103 1142 2972 
Q 928 2841 928 2578 
Q 928 2378 1081 2264 
Q 1234 2150 1697 2047 
L 1894 2003 
Q 2506 1872 2764 1633 
Q 3022 1394 3022 966 
Q 3022 478 2636 193 
Q 2250 -91 1575 -91 
Q 1294 -91 989 -36 
Q 684 19 347 128 
L 347 722 
Q 666 556 975 473 
Q 1284 391 1588 391 
Q 1994 391 2212 530 
Q 2431 669 2431 922 
Q 2431 1156 2273 1281 
Q 2116 1406 1581 1522 
L 1381 1569 
Q 847 1681 609 1914 
Q 372 2147 372 2553 
Q 372 3047 722 3315 
Q 1072 3584 1716 3584 
Q 2034 3584 2315 3537 
Q 2597 3491 2834 3397 
z
" transform="scale(0.015625)"/>
       </defs>
       <use xlink:href="#DejaVuSans-54"/>
       <use xlink:href="#DejaVuSans-77" transform="translate(44.583984 0)"/>
       <use xlink:href="#DejaVuSans-69" transform="translate(126.371094 0)"/>
       <use xlink:href="#DejaVuSans-6e" transform="translate(154.154297 0)"/>
       <use xlink:href="#DejaVuSans-20" transform="translate(217.533203 0)"/>
       <use xlink:href="#DejaVuSans-50" transform="translate(249.320312 0)"/>
       <use xlink:href="#DejaVuSans-65" transform="translate(305.998047 0)"/>
       <use xlink:href="#DejaVuSans-61" transform="translate(367.521484 0)"/>
       <use xlink:href="#DejaVuSans-6b" transform="translate(428.800781 0)"/>
       <use xlink:href="#DejaVuSans-73" transform="translate(486.710938 0)"/>
      </g>
     </g>
    </g>
    <g id="xtick_14">
     <g id="line2d_14">
      <g>
       <use xlink:href="#m2811b54b6c" x="659.224969" y="438.64" style="stroke: #000000; stroke-width: 0.8"/>
      </g>
     </g>
     <g id="text_14">
      <!-- Vosim -->
      <g transform="translate(657.145281 475.5525) rotate(-90) scale(0.1 -0.1)">
       <defs>
        <path id="DejaVuSans-56" d="M 1831 0 
L 50 4666 
L 709 4666 
L 2188 738 
L 3669 4666 
L 4325 4666 
L 2547 0 
L 1831 0 
z
" transform="scale(0.015625)"/>
       </defs>
       <use xlink:href="#DejaVuSans-56"/>
       <use xlink:href="#DejaVuSans-6f" transform="translate(60.658203 0)"/>
       <use xlink:href="#DejaVuSans-73" transform="translate(121.839844 0)"/>
       <use xlink:href="#DejaVuSans-69" transform="translate(173.939453 0)"/>
       <use xlink:href="#DejaVuSans-6d" transform="translate(201.722656 0)"/>
      </g>
     </g>
    </g>
    <g id="xtick_15">
     <g id="line2d_15">
      <g>
       <use xlink:href="#m2811b54b6c" x="702.75663" y="438.64" style="stroke: #000000; stroke-width: 0.8"/>
      </g>
     </g>
     <g id="text_15">
      <!-- Vowel -->
      <g transform="translate(700.676943 474.93375) rotate(-90) scale(0.1 -0.1)">
       <use xlink:href="#DejaVuSans-56"/>
       <use xlink:href="#DejaVuSans-6f" transform="translate(60.658203 0)"/>
       <use xlink:href="#DejaVuSans-77" transform="translate(121.839844 0)"/>
       <use xlink:href="#DejaVuSans-65" transform="translate(203.626953 0)"/>
       <use xlink:href="#DejaVuSans-6c" transform="translate(265.150391 0)"/>
      </g>
     </g>
    </g>
    <g id="text_16">
     <!-- Braids macro oscillator shape -->
     <g transform="translate(324.056094 526.485312) scale(0.1 -0.1)">
      <defs>
       <path id="DejaVuSans-68" d="M 3513 2113 
L 3513 0 
L 2938 0 
L 2938 2094 
Q 2938 2591 2744 2837 
Q 2550 3084 2163 3084 
Q 1697 3084 1428 2787 
Q 1159 2491 1159 1978 
L 1159 0 
L 581 0 
L 581 4863 
L 1159 4863 
L 1159 2956 
Q 1366 3272 1645 3428 
Q 1925 3584 2291 3584 
Q 2894 3584 3203 3211 
Q 3513 2838 3513 2113 
z
" transform="scale(0.015625)"/>
      </defs>
      <use xlink:href="#DejaVuSans-42"/>
      <use xlink:href="#DejaVuSans-72" transform="translate(68.603516 0)"/>
      <use xlink:href="#DejaVuSans-61" transform="translate(109.716797 0)"/>
      <use xlink:href="#DejaVuSans-69" transform="translate(170.996094 0)"/>
      <use xlink:href="#DejaVuSans-64" transform="translate(198.779297 0)"/>
      <use xlink:href="#DejaVuSans-73" transform="translate(262.255859 0)"/>
      <use xlink:href="#DejaVuSans-20" transform="translate(314.355469 0)"/>
      <use xlink:href="#DejaVuSans-6d" transform="translate(346.142578 0)"/>
      <use xlink:href="#DejaVuSans-61" transform="translate(443.554688 0)"/>
      <use xlink:href="#DejaVuSans-63" transform="translate(504.833984 0)"/>
      <use xlink:href="#DejaVuSans-72" transform="translate(559.814453 0)"/>
      <use xlink:href="#DejaVuSans-6f" transform="translate(598.677734 0)"/>
      <use xlink:href="#DejaVuSans-20" transform="translate(659.859375 0)"/>
      <use xlink:href="#DejaVuSans-6f" transform="translate(691.646484 0)"/>
      <use xlink:href="#DejaVuSans-73" transform="translate(752.828125 0)"/>
      <use xlink:href="#DejaVuSans-63" transform="translate(804.927734 0)"/>
      <use xlink:href="#DejaVuSans-69" transform="translate(859.908203 0)"/>
      <use xlink:href="#DejaVuSans-6c" transform="translate(887.691406 0)"/>
      <use xlink:href="#DejaVuSans-6c" transform="translate(915.474609 0)"/>
      <use xlink:href="#DejaVuSans-61" transform="translate(943.257812 0)"/>
      <use xlink:href="#DejaVuSans-74" transform="translate(1004.537109 0)"/>
      <use xlink:href="#DejaVuSans-6f" transform="translate(1043.746094 0)"/>
      <use xlink:href="#DejaVuSans-72" transform="translate(1104.927734 0)"/>
      <use xlink:href="#DejaVuSans-20" transform="translate(1146.041016 0)"/>
      <use xlink:href="#DejaVuSans-73" transform="translate(1177.828125 0)"/>
      <use xlink:href="#DejaVuSans-68" transform="translate(1229.927734 0)"/>
      <use xlink:href="#DejaVuSans-61" transform="translate(1293.306641 0)"/>
      <use xlink:href="#DejaVuSans-70" transform="translate(1354.585938 0)"/>
      <use xlink:href="#DejaVuSans-65" transform="translate(1418.0625 0)"/>
     </g>
    </g>
   </g>
   <g id="matplotlib.axis_2">
    <g id="ytick_1">
     <g id="line2d_16">
      <defs>
       <path id="m305f8904e8" d="M 0 0 
L -3.5 0 
" style="stroke: #000000; stroke-width: 0.8"/>
      </defs>
      <g>
       <use xlink:href="#m305f8904e8" x="50.87" y="438.64" style="stroke: #000000; stroke-width: 0.8"/>
      </g>
     </g>
     <g id="text_17">
      <!-- 0 -->
      <g transform="translate(37.5075 442.439219) scale(0.1 -0.1)">
       <defs>
        <path id="DejaVuSans-30" d="M 2034 4250 
Q 1547 4250 1301 3770 
Q 1056 3291 1056 2328 
Q 1056 1369 1301 889 
Q 1547 409 2034 409 
Q 2525 409 2770 889 
Q 3016 1369 3016 2328 
Q 3016 3291 2770 3770 
Q 2525 4250 2034 4250 
z
M 2034 4750 
Q 2819 4750 3233 4129 
Q 3647 3509 3647 2328 
Q 3647 1150 3233 529 
Q 2819 -91 2034 -91 
Q 1250 -91 836 529 
Q 422 1150 422 2328 
Q 422 3509 836 4129 
Q 1250 4750 2034 4750 
z
" transform="scale(0.015625)"/>
       </defs>
       <use xlink:href="#DejaVuSans-30"/>
      </g>
     </g>
    </g>
    <g id="ytick_2">
     <g id="line2d_17">
      <g>
       <use xlink:href="#m305f8904e8" x="50.87" y="389.001721" style="stroke: #000000; stroke-width: 0.8"/>
      </g>
     </g>
     <g id="text_18">
      <!-- 25 -->
      <g transform="translate(31.145 392.80094) scale(0.1 -0.1)">
       <defs>
        <path id="DejaVuSans-32" d="M 1228 531 
L 3431 531 
L 3431 0 
L 469 0 
L 469 531 
Q 828 903 1448 1529 
Q 2069 2156 2228 2338 
Q 2531 2678 2651 2914 
Q 2772 3150 2772 3378 
Q 2772 3750 2511 3984 
Q 2250 4219 1831 4219 
Q 1534 4219 1204 4116 
Q 875 4013 500 3803 
L 500 4441 
Q 881 4594 1212 4672 
Q 1544 4750 1819 4750 
Q 2544 4750 2975 4387 
Q 3406 4025 3406 3419 
Q 3406 3131 3298 2873 
Q 3191 2616 2906 2266 
Q 2828 2175 2409 1742 
Q 1991 1309 1228 531 
z
" transform="scale(0.015625)"/>
        <path id="DejaVuSans-35" d="M 691 4666 
L 3169 4666 
L 3169 4134 
L 1269 4134 
L 1269 2991 
Q 1406 3038 1543 3061 
Q 1681 3084 1819 3084 
Q 2600 3084 3056 2656 
Q 3513 2228 3513 1497 
Q 3513 744 3044 326 
Q 2575 -91 1722 -91 
Q 1428 -91 1123 -41 
Q 819 9 494 109 
L 494 744 
Q 775 591 1075 516 
Q 1375 441 1709 441 
Q 2250 441 2565 725 
Q 2881 1009 2881 1497 
Q 2881 1984 2565 2268 
Q 2250 2553 1709 2553 
Q 1456 2553 1204 2497 
Q 953 2441 691 2322 
L 691 4666 
z
" transform="scale(0.015625)"/>
       </defs>
       <use xlink:href="#DejaVuSans-32"/>
       <use xlink:href="#DejaVuSans-35" transform="translate(63.623047 0)"/>
      </g>
     </g>
    </g>
    <g id="ytick_3">
     <g id="line2d_18">
      <g>
       <use xlink:href="#m305f8904e8" x="50.87" y="339.363442" style="stroke: #000000; stroke-width: 0.8"/>
      </g>
     </g>
     <g id="text_19">
      <!-- 50 -->
      <g transform="translate(31.145 343.16266) scale(0.1 -0.1)">
       <use xlink:href="#DejaVuSans-35"/>
       <use xlink:href="#DejaVuSans-30" transform="translate(63.623047 0)"/>
      </g>
     </g>
    </g>
    <g id="ytick_4">
     <g id="line2d_19">
      <g>
       <use xlink:href="#m305f8904e8" x="50.87" y="289.725162" style="stroke: #000000; stroke-width: 0.8"/>
      </g>
     </g>
     <g id="text_20">
      <!-- 75 -->
      <g transform="translate(31.145 293.524381) scale(0.1 -0.1)">
       <defs>
        <path id="DejaVuSans-37" d="M 525 4666 
L 3525 4666 
L 3525 4397 
L 1831 0 
L 1172 0 
L 2766 4134 
L 525 4134 
L 525 4666 
z
" transform="scale(0.015625)"/>
       </defs>
       <use xlink:href="#DejaVuSans-37"/>
       <use xlink:href="#DejaVuSans-35" transform="translate(63.623047 0)"/>
      </g>
     </g>
    </g>
    <g id="ytick_5">
     <g id="line2d_20">
      <g>
       <use xlink:href="#m305f8904e8" x="50.87" y="240.086883" style="stroke: #000000; stroke-width: 0.8"/>
      </g>
     </g>
     <g id="text_21">
      <!-- 100 -->
      <g transform="translate(24.7825 243.886102) scale(0.1 -0.1)">
       <defs>
        <path id="DejaVuSans-31" d="M 794 531 
L 1825 531 
L 1825 4091 
L 703 3866 
L 703 4441 
L 1819 4666 
L 2450 4666 
L 2450 531 
L 3481 531 
L 3481 0 
L 794 0 
L 794 531 
z
" transform="scale(0.015625)"/>
       </defs>
       <use xlink:href="#DejaVuSans-31"/>
       <use xlink:href="#DejaVuSans-30" transform="translate(63.623047 0)"/>
       <use xlink:href="#DejaVuSans-30" transform="translate(127.246094 0)"/>
      </g>
     </g>
    </g>
    <g id="ytick_6">
     <g id="line2d_21">
      <g>
       <use xlink:href="#m305f8904e8" x="50.87" y="190.448604" style="stroke: #000000; stroke-width: 0.8"/>
      </g>
     </g>
     <g id="text_22">
      <!-- 125 -->
      <g transform="translate(24.7825 194.247823) scale(0.1 -0.1)">
       <use xlink:href="#DejaVuSans-31"/>
       <use xlink:href="#DejaVuSans-32" transform="translate(63.623047 0)"/>
       <use xlink:href="#DejaVuSans-35" transform="translate(127.246094 0)"/>
      </g>
     </g>
    </g>
    <g id="ytick_7">
     <g id="line2d_22">
      <g>
       <use xlink:href="#m305f8904e8" x="50.87" y="140.810325" style="stroke: #000000; stroke-width: 0.8"/>
      </g>
     </g>
     <g id="text_23">
      <!-- 150 -->
      <g transform="translate(24.7825 144.609544) scale(0.1 -0.1)">
       <use xlink:href="#DejaVuSans-31"/>
       <use xlink:href="#DejaVuSans-35" transform="translate(63.623047 0)"/>
       <use xlink:href="#DejaVuSans-30" transform="translate(127.246094 0)"/>
      </g>
     </g>
    </g>
    <g id="ytick_8">
     <g id="line2d_23">
      <g>
       <use xlink:href="#m305f8904e8" x="50.87" y="91.172046" style="stroke: #000000; stroke-width: 0.8"/>
      </g>
     </g>
     <g id="text_24">
      <!-- 175 -->
      <g transform="translate(24.7825 94.971264) scale(0.1 -0.1)">
       <use xlink:href="#DejaVuSans-31"/>
       <use xlink:href="#DejaVuSans-37" transform="translate(63.623047 0)"/>
       <use xlink:href="#DejaVuSans-35" transform="translate(127.246094 0)"/>
      </g>
     </g>
    </g>
    <g id="ytick_9">
     <g id="line2d_24">
      <g>
       <use xlink:href="#m305f8904e8" x="50.87" y="41.533766" style="stroke: #000000; stroke-width: 0.8"/>
      </g>
     </g>
     <g id="text_25">
      <!-- 200 -->
      <g transform="translate(24.7825 45.332985) scale(0.1 -0.1)">
       <use xlink:href="#DejaVuSans-32"/>
       <use xlink:href="#DejaVuSans-30" transform="translate(63.623047 0)"/>
       <use xlink:href="#DejaVuSans-30" transform="translate(127.246094 0)"/>
      </g>
     </g>
    </g>
    <g id="text_26">
     <!-- Voices at 44.1kHz -->
     <g transform="translate(18.702813 277.286563) rotate(-90) scale(0.1 -0.1)">
      <defs>
       <path id="DejaVuSans-34" d="M 2419 4116 
L 825 1625 
L 2419 1625 
L 2419 4116 
z
M 2253 4666 
L 3047 4666 
L 3047 1625 
L 3713 1625 
L 3713 1100 
L 3047 1100 
L 3047 0 
L 2419 0 
L 2419 1100 
L 313 1100 
L 313 1709 
L 2253 4666 
z
" transform="scale(0.015625)"/>
       <path id="DejaVuSans-2e" d="M 684 794 
L 1344 794 
L 1344 0 
L 684 0 
L 684 794 
z
" transform="scale(0.015625)"/>
       <path id="DejaVuSans-48" d="M 628 4666 
L 1259 4666 
L 1259 2753 
L 3553 2753 
L 3553 4666 
L 4184 4666 
L 4184 0 
L 3553 0 
L 3553 2222 
L 1259 2222 
L 1259 0 
L 628 0 
L 628 4666 
z
" transform="scale(0.015625)"/>
       <path id="DejaVuSans-7a" d="M 353 3500 
L 3084 3500 
L 3084 2975 
L 922 459 
L 3084 459 
L 3084 0 
L 275 0 
L 275 525 
L 2438 3041 
L 353 3041 
L 353 3500 
z
" transform="scale(0.015625)"/>
      </defs>
      <use xlink:href="#DejaVuSans-56"/>
      <use xlink:href="#DejaVuSans-6f" transform="translate(60.658203 0)"/>
      <use xlink:href="#DejaVuSans-69" transform="translate(121.839844 0)"/>
      <use xlink:href="#DejaVuSans-63" transform="translate(149.623047 0)"/>
      <use xlink:href="#DejaVuSans-65" transform="translate(204.603516 0)"/>
      <use xlink:href="#DejaVuSans-73" transform="translate(266.126953 0)"/>
      <use xlink:href="#DejaVuSans-20" transform="translate(318.226562 0)"/>
      <use xlink:href="#DejaVuSans-61" transform="translate(350.013672 0)"/>
      <use xlink:href="#DejaVuSans-74" transform="translate(411.292969 0)"/>
      <use xlink:href="#DejaVuSans-20" transform="translate(450.501953 0)"/>
      <use xlink:href="#DejaVuSans-34" transform="translate(482.289062 0)"/>
      <use xlink:href="#DejaVuSans-34" transform="translate(545.912109 0)"/>
      <use xlink:href="#DejaVuSans-2e" transform="translate(609.535156 0)"/>
      <use xlink:href="#DejaVuSans-31" transform="translate(641.322266 0)"/>
      <use xlink:href="#DejaVuSans-6b" transform="translate(704.945312 0)"/>
      <use xlink:href="#DejaVuSans-48" transform="translate(762.855469 0)"/>
      <use xlink:href="#DejaVuSans-7a" transform="translate(838.050781 0)"/>
     </g>
    </g>
   </g>
   <g id="patch_48">
    <path d="M 50.87 438.64 
L 50.87 26.88 
" style="fill: none; stroke: #000000; stroke-width: 0.8; stroke-linejoin: miter; stroke-linecap: square"/>
   </g>
   <g id="patch_49">
    <path d="M 745.2 438.64 
L 745.2 26.88 
" style="fill: none; stroke: #000000; stroke-width: 0.8; stroke-linejoin: miter; stroke-linecap: square"/>
   </g>
   <g id="patch_50">
    <path d="M 50.87 438.64 
L 745.2 438.64 
" style="fill: none; stroke: #000000; stroke-width: 0.8; stroke-linejoin: miter; stroke-linecap: square"/>
   </g>
   <g id="patch_51">
    <path d="M 50.87 26.88 
L 745.2 26.88 
" style="fill: none; stroke: #000000; stroke-width: 0.8; stroke-linejoin: miter; stroke-linecap: square"/>
   </g>
   <g id="text_27">
    <!-- Braids max voices on all cores at 44.1kHz -->
    <g transform="translate(50.87 20.88) scale(0.12 -0.12)">
     <defs>
      <path id="DejaVuSans-78" d="M 3513 3500 
L 2247 1797 
L 3578 0 
L 2900 0 
L 1881 1375 
L 863 0 
L 184 0 
L 1544 1831 
L 300 3500 
L 978 3500 
L 1906 2253 
L 2834 3500 
L 3513 3500 
z
" transform="scale(0.015625)"/>
      <path id="DejaVuSans-76" d="M 191 3500 
L 800 3500 
L 1894 563 
L 2988 3500 
L 3597 3500 
L 2284 0 
L 1503 0 
L 191 3500 
z
" transform="scale(0.015625)"/>
     </defs>
     <use xlink:href="#DejaVuSans-42"/>
     <use xlink:href="#DejaVuSans-72" transform="translate(68.603516 0)"/>
     <use xlink:href="#DejaVuSans-61" transform="translate(109.716797 0)"/>
     <use xlink:href="#DejaVuSans-69" transform="translate(170.996094 0)"/>
     <use xlink:href="#DejaVuSans-64" transform="translate(198.779297 0)"/>
     <use xlink:href="#DejaVuSans-73" transform="translate(262.255859 0)"/>
     <use xlink:href="#DejaVuSans-20" transform="translate(314.355469 0)"/>
     <use xlink:href="#DejaVuSans-6d" transform="translate(346.142578 0)"/>
     <use xlink:href="#DejaVuSans-61" transform="translate(443.554688 0)"/>
     <use xlink:href="#DejaVuSans-78" transform="translate(504.833984 0)"/>
     <use xlink:href="#DejaVuSans-20" transform="translate(564.013672 0)"/>
     <use xlink:href="#DejaVuSans-76" transform="translate(595.800781 0)"/>
     <use xlink:href="#DejaVuSans-6f" transform="translate(654.980469 0)"/>
     <use xlink:href="#DejaVuSans-69" transform="translate(716.162109 0)"/>
     <use xlink:href="#DejaVuSans-63" transform="translate(743.945312 0)"/>
     <use xlink:href="#DejaVuSans-65" transform="translate(798.925781 0)"/>
     <use xlink:href="#DejaVuSans-73" transform="translate(860.449219 0)"/>
     <use xlink:href="#DejaVuSans-20" transform="translate(912.548828 0)"/>
     <use xlink:href="#DejaVuSans-6f" transform="translate(944.335938 0)"/>
     <use xlink:href="#DejaVuSans-6e" transform="translate(1005.517578 0)"/>
     <use xlink:href="#DejaVuSans-20" transform="translate(1068.896484 0)"/>
     <use xlink:href="#DejaVuSans-61" transform="translate(1100.683594 0)"/>
     <use xlink:href="#DejaVuSans-6c" transform="translate(1161.962891 0)"/>
     <use xlink:href="#DejaVuSans-6c" transform="translate(1189.746094 0)"/>
     <use xlink:href="#DejaVuSans-20" transform="translate(1217.529297 0)"/>
     <use xlink:href="#DejaVuSans-63" transform="translate(1249.316406 0)"/>
     <use xlink:href="#DejaVuSans-6f" transform="translate(1304.296875 0)"/>
     <use xlink:href="#DejaVuSans-72" transform="translate(1365.478516 0)"/>
     <use xlink:href="#DejaVuSans-65" transform="translate(1404.341797 0)"/>
     <use xlink:href="#DejaVuSans-73" transform="translate(1465.865234 0)"/>
     <use xlink:href="#DejaVuSans-20" transform="translate(1517.964844 0)"/>
     <use xlink:href="#DejaVuSans-61" transform="translate(1549.751953 0)"/>
     <use xlink:href="#DejaVuSans-74" transform="translate(1611.03125 0)"/>
     <use xlink:href="#DejaVuSans-20" transform="translate(1650.240234 0)"/>
     <use xlink:href="#DejaVuSans-34" transform="translate(1682.027344 0)"/>
     <use xlink:href="#DejaVuSans-34" transform="translate(1745.650391 0)"/>
     <use xlink:href="#DejaVuSans-2e" transform="translate(1809.273438 0)"/>
     <use xlink:href="#DejaVuSans-31" transform="translate(1841.060547 0)"/>
     <use xlink:href="#DejaVuSans-6b" transform="translate(1904.683594 0)"/>
     <use xlink:href="#DejaVuSans-48" transform="translate(1962.59375 0)"/>
     <use xlink:href="#DejaVuSans-7a" transform="translate(2037.789062 0)"/>
    </g>
   </g>
   <g id="legend_1">
    <g id="patch_52">
     <path d="M 324.881875 93.5925 
L 471.188125 93.5925 
Q 473.188125 93.5925 473.188125 91.5925 
L 473.188125 33.88 
Q 473.188125 31.88 471.188125 31.88 
L 324.881875 31.88 
Q 322.881875 31.88 322.881875 33.88 
L 322.881875 91.5925 
Q 322.881875 93.5925 324.881875 93.5925 
z
" style="fill: #ffffff; opacity: 0.8; stroke: #cccccc; stroke-linejoin: miter"/>
    </g>
    <g id="text_28">
     <!-- Sub Category -->
     <g transform="translate(364.088125 43.478437) scale(0.1 -0.1)">
      <defs>
       <path id="DejaVuSans-79" d="M 2059 -325 
Q 1816 -950 1584 -1140 
Q 1353 -1331 966 -1331 
L 506 -1331 
L 506 -850 
L 844 -850 
Q 1081 -850 1212 -737 
Q 1344 -625 1503 -206 
L 1606 56 
L 191 3500 
L 800 3500 
L 1894 763 
L 2988 3500 
L 3597 3500 
L 2059 -325 
z
" transform="scale(0.015625)"/>
      </defs>
      <use xlink:href="#DejaVuSans-53"/>
      <use xlink:href="#DejaVuSans-75" transform="translate(63.476562 0)"/>
      <use xlink:href="#DejaVuSans-62" transform="translate(126.855469 0)"/>
      <use xlink:href="#DejaVuSans-20" transform="translate(190.332031 0)"/>
      <use xlink:href="#DejaVuSans-43" transform="translate(222.119141 0)"/>
      <use xlink:href="#DejaVuSans-61" transform="translate(291.943359 0)"/>
      <use xlink:href="#DejaVuSans-74" transform="translate(353.222656 0)"/>
      <use xlink:href="#DejaVuSans-65" transform="translate(392.431641 0)"/>
      <use xlink:href="#DejaVuSans-67" transform="translate(453.955078 0)"/>
      <use xlink:href="#DejaVuSans-6f" transform="translate(517.431641 0)"/>
      <use xlink:href="#DejaVuSans-72" transform="translate(578.613281 0)"/>
      <use xlink:href="#DejaVuSans-79" transform="translate(619.726562 0)"/>
     </g>
    </g>
    <g id="patch_53">
     <path d="M 326.881875 58.156563 
L 346.881875 58.156563 
L 346.881875 51.156563 
L 326.881875 51.156563 
z
" style="fill: #1f77b4"/>
    </g>
    <g id="text_29">
     <!-- RP2040 (200Mhz) -->
     <g transform="translate(354.881875 58.156563) scale(0.1 -0.1)">
      <defs>
       <path id="DejaVuSans-52" d="M 2841 2188 
Q 3044 2119 3236 1894 
Q 3428 1669 3622 1275 
L 4263 0 
L 3584 0 
L 2988 1197 
Q 2756 1666 2539 1819 
Q 2322 1972 1947 1972 
L 1259 1972 
L 1259 0 
L 628 0 
L 628 4666 
L 2053 4666 
Q 2853 4666 3247 4331 
Q 3641 3997 3641 3322 
Q 3641 2881 3436 2590 
Q 3231 2300 2841 2188 
z
M 1259 4147 
L 1259 2491 
L 2053 2491 
Q 2509 2491 2742 2702 
Q 2975 2913 2975 3322 
Q 2975 3731 2742 3939 
Q 2509 4147 2053 4147 
L 1259 4147 
z
" transform="scale(0.015625)"/>
       <path id="DejaVuSans-28" d="M 1984 4856 
Q 1566 4138 1362 3434 
Q 1159 2731 1159 2009 
Q 1159 1288 1364 580 
Q 1569 -128 1984 -844 
L 1484 -844 
Q 1016 -109 783 600 
Q 550 1309 550 2009 
Q 550 2706 781 3412 
Q 1013 4119 1484 4856 
L 1984 4856 
z
" transform="scale(0.015625)"/>
       <path id="DejaVuSans-29" d="M 513 4856 
L 1013 4856 
Q 1481 4119 1714 3412 
Q 1947 2706 1947 2009 
Q 1947 1309 1714 600 
Q 1481 -109 1013 -844 
L 513 -844 
Q 928 -128 1133 580 
Q 1338 1288 1338 2009 
Q 1338 2731 1133 3434 
Q 928 4138 513 4856 
z
" transform="scale(0.015625)"/>
      </defs>
      <use xlink:href="#DejaVuSans-52"/>
      <use xlink:href="#DejaVuSans-50" transform="translate(69.482422 0)"/>
      <use xlink:href="#DejaVuSans-32" transform="translate(129.785156 0)"/>
      <use xlink:href="#DejaVuSans-30" transform="translate(193.408203 0)"/>
      <use xlink:href="#DejaVuSans-34" transform="translate(257.03125 0)"/>
      <use xlink:href="#DejaVuSans-30" transform="translate(320.654297 0)"/>
      <use xlink:href="#DejaVuSans-20" transform="translate(384.277344 0)"/>
      <use xlink:href="#DejaVuSans-28" transform="translate(416.064453 0)"/>
      <use xlink:href="#DejaVuSans-32" transform="translate(455.078125 0)"/>
      <use xlink:href="#DejaVuSans-30" transform="translate(518.701172 0)"/>
      <use xlink:href="#DejaVuSans-30" transform="translate(582.324219 0)"/>
      <use xlink:href="#DejaVuSans-4d" transform="translate(645.947266 0)"/>
      <use xlink:href="#DejaVuSans-68" transform="translate(732.226562 0)"/>
      <use xlink:href="#DejaVuSans-7a" transform="translate(795.605469 0)"/>
      <use xlink:href="#DejaVuSans-29" transform="translate(848.095703 0)"/>
     </g>
    </g>
    <g id="patch_54">
     <path d="M 326.881875 72.834688 
L 346.881875 72.834688 
L 346.881875 65.834688 
L 326.881875 65.834688 
z
" style="fill: #ff7f0e"/>
    </g>
    <g id="text_30">
     <!-- RP2350 (ARM 150Mhz) -->
     <g transform="translate(354.881875 72.834688) scale(0.1 -0.1)">
      <defs>
       <path id="DejaVuSans-33" d="M 2597 2516 
Q 3050 2419 3304 2112 
Q 3559 1806 3559 1356 
Q 3559 666 3084 287 
Q 2609 -91 1734 -91 
Q 1441 -91 1130 -33 
Q 819 25 488 141 
L 488 750 
Q 750 597 1062 519 
Q 1375 441 1716 441 
Q 2309 441 2620 675 
Q 2931 909 2931 1356 
Q 2931 1769 2642 2001 
Q 2353 2234 1838 2234 
L 1294 2234 
L 1294 2753 
L 1863 2753 
Q 2328 2753 2575 2939 
Q 2822 3125 2822 3475 
Q 2822 3834 2567 4026 
Q 2313 4219 1838 4219 
Q 1578 4219 1281 4162 
Q 984 4106 628 3988 
L 628 4550 
Q 988 4650 1302 4700 
Q 1616 4750 1894 4750 
Q 2613 4750 3031 4423 
Q 3450 4097 3450 3541 
Q 3450 3153 3228 2886 
Q 3006 2619 2597 2516 
z
" transform="scale(0.015625)"/>
       <path id="DejaVuSans-41" d="M 2188 4044 
L 1331 1722 
L 3047 1722 
L 2188 4044 
z
M 1831 4666 
L 2547 4666 
L 4325 0 
L 3669 0 
L 3244 1197 
L 1141 1197 
L 716 0 
L 50 0 
L 1831 4666 
z
" transform="scale(0.015625)"/>
      </defs>
      <use xlink:href="#DejaVuSans-52"/>
      <use xlink:href="#DejaVuSans-50" transform="translate(69.482422 0)"/>
      <use xlink:href="#DejaVuSans-32" transform="translate(129.785156 0)"/>
      <use xlink:href="#DejaVuSans-33" transform="translate(193.408203 0)"/>
      <use xlink:href="#DejaVuSans-35" transform="translate(257.03125 0)"/>
      <use xlink:href="#DejaVuSans-30" transform="translate(320.654297 0)"/>
      <use xlink:href="#DejaVuSans-20" transform="translate(384.277344 0)"/>
      <use xlink:href="#DejaVuSans-28" transform="translate(416.064453 0)"/>
      <use xlink:href="#DejaVuSans-41" transform="translate(455.078125 0)"/>
      <use xlink:href="#DejaVuSans-52" transform="translate(523.486328 0)"/>
      <use xlink:href="#DejaVuSans-4d" transform="translate(592.96875 0)"/>
      <use xlink:href="#DejaVuSans-20" transform="translate(679.248047 0)"/>
      <use xlink:href="#DejaVuSans-31" transform="translate(711.035156 0)"/>
      <use xlink:href="#DejaVuSans-35" transform="translate(774.658203 0)"/>
      <use xlink:href="#DejaVuSans-30" transform="translate(838.28125 0)"/>
      <use xlink:href="#DejaVuSans-4d" transform="translate(901.904297 0)"/>
      <use xlink:href="#DejaVuSans-68" transform="translate(988.183594 0)"/>
      <use xlink:href="#DejaVuSans-7a" transform="translate(1051.5625 0)"/>
      <use xlink:href="#DejaVuSans-29" transform="translate(1104.052734 0)"/>
     </g>
    </g>
    <g id="patch_55">
     <path d="M 326.881875 87.512812 
L 346.881875 87.512812 
L 346.881875 80.512812 
L 326.881875 80.512812 
z
" style="fill: #2ca02c"/>
    </g>
    <g id="text_31">
     <!-- iMX RT1060 (600Mhz) -->
     <g transform="translate(354.881875 87.512812) scale(0.1 -0.1)">
      <defs>
       <path id="DejaVuSans-58" d="M 403 4666 
L 1081 4666 
L 2241 2931 
L 3406 4666 
L 4084 4666 
L 2584 2425 
L 4184 0 
L 3506 0 
L 2194 1984 
L 872 0 
L 191 0 
L 1856 2491 
L 403 4666 
z
" transform="scale(0.015625)"/>
       <path id="DejaVuSans-36" d="M 2113 2584 
Q 1688 2584 1439 2293 
Q 1191 2003 1191 1497 
Q 1191 994 1439 701 
Q 1688 409 2113 409 
Q 2538 409 2786 701 
Q 3034 994 3034 1497 
Q 3034 2003 2786 2293 
Q 2538 2584 2113 2584 
z
M 3366 4563 
L 3366 3988 
Q 3128 4100 2886 4159 
Q 2644 4219 2406 4219 
Q 1781 4219 1451 3797 
Q 1122 3375 1075 2522 
Q 1259 2794 1537 2939 
Q 1816 3084 2150 3084 
Q 2853 3084 3261 2657 
Q 3669 2231 3669 1497 
Q 3669 778 3244 343 
Q 2819 -91 2113 -91 
Q 1303 -91 875 529 
Q 447 1150 447 2328 
Q 447 3434 972 4092 
Q 1497 4750 2381 4750 
Q 2619 4750 2861 4703 
Q 3103 4656 3366 4563 
z
" transform="scale(0.015625)"/>
      </defs>
      <use xlink:href="#DejaVuSans-69"/>
      <use xlink:href="#DejaVuSans-4d" transform="translate(27.783203 0)"/>
      <use xlink:href="#DejaVuSans-58" transform="translate(114.0625 0)"/>
      <use xlink:href="#DejaVuSans-20" transform="translate(182.568359 0)"/>
      <use xlink:href="#DejaVuSans-52" transform="translate(214.355469 0)"/>
      <use xlink:href="#DejaVuSans-54" transform="translate(276.587891 0)"/>
      <use xlink:href="#DejaVuSans-31" transform="translate(337.671875 0)"/>
      <use xlink:href="#DejaVuSans-30" transform="translate(401.294922 0)"/>
      <use xlink:href="#DejaVuSans-36" transform="translate(464.917969 0)"/>
      <use xlink:href="#DejaVuSans-30" transform="translate(528.541016 0)"/>
      <use xlink:href="#DejaVuSans-20" transform="translate(592.164062 0)"/>
      <use xlink:href="#DejaVuSans-28" transform="translate(623.951172 0)"/>
      <use xlink:href="#DejaVuSans-36" transform="translate(662.964844 0)"/>
      <use xlink:href="#DejaVuSans-30" transform="translate(726.587891 0)"/>
      <use xlink:href="#DejaVuSans-30" transform="translate(790.210938 0)"/>
      <use xlink:href="#DejaVuSans-4d" transform="translate(853.833984 0)"/>
      <use xlink:href="#DejaVuSans-68" transform="translate(940.113281 0)"/>
      <use xlink:href="#DejaVuSans-7a" transform="translate(1003.492188 0)"/>
      <use xlink:href="#DejaVuSans-29" transform="translate(1055.982422 0)"/>
     </g>
    </g>
   </g>
  </g>
 </g>
 <defs>
  <clipPath id="p8b999d71da">
   <rect x="50.87" y="26.88" width="694.33" height="411.76"/>
  </clipPath>
 </defs>
</svg>
