<?xml version="1.0" encoding="utf-8" standalone="no"?>
<!DOCTYPE svg PUBLIC "-//W3C//DTD SVG 1.1//EN"
  "http://www.w3.org/Graphics/SVG/1.1/DTD/svg11.dtd">
<svg xmlns:xlink="http://www.w3.org/1999/xlink" width="756pt" height="540pt" viewBox="0 0 756 540" xmlns="http://www.w3.org/2000/svg" version="1.1">
 <metadata>
  <rdf:RDF xmlns:dc="http://purl.org/dc/elements/1.1/" xmlns:cc="http://creativecommons.org/ns#" xmlns:rdf="http://www.w3.org/1999/02/22-rdf-syntax-ns#">
   <cc:Work>
    <dc:type rdf:resource="http://purl.org/dc/dcmitype/StillImage"/>
    <dc:date>2026-06-15T16:10:47.672412</dc:date>
    <dc:format>image/svg+xml</dc:format>
    <dc:creator>
     <cc:Agent>
      <dc:title>Matplotlib v3.10.9, https://matplotlib.org/</dc:title>
     </cc:Agent>
    </dc:creator>
   </cc:Work>
  </rdf:RDF>
 </metadata>
 <defs>
  <style type="text/css">*{stroke-linejoin: round; stroke-linecap: butt}</style>
 </defs>
 <g id="figure_1">
  <g id="patch_1">
   <path d="M 0 540 
L 756 540 
L 756 0 
L 0 0 
z
" style="fill: #ffffff"/>
  </g>
  <g id="axes_1">
   <g id="patch_2">
    <path d="M 44.57 438.64 
L 745.2 438.64 
L 745.2 26.88 
L 44.57 26.88 
z
" style="fill: #ffffff"/>
   </g>
   <g id="patch_3">
    <path d="M 76.416818 438.64 
L 87.39848 438.64 
L 87.39848 230.01658 
L 76.416818 230.01658 
z
" clip-path="url(#pbd9fe27b3d)" style="fill: #1f77b4"/>
   </g>
   <g id="patch_4">
    <path d="M 120.343464 438.64 
L 131.325125 438.64 
L 131.325125 204.912597 
L 120.343464 204.912597 
z
" clip-path="url(#pbd9fe27b3d)" style="fill: #1f77b4"/>
   </g>
   <g id="patch_5">
    <path d="M 164.27011 438.64 
L 175.251771 438.64 
L 175.251771 183.560039 
L 164.27011 183.560039 
z
" clip-path="url(#pbd9fe27b3d)" style="fill: #1f77b4"/>
   </g>
   <g id="patch_6">
    <path d="M 208.196755 438.64 
L 219.178417 438.64 
L 219.178417 278.105969 
L 208.196755 278.105969 
z
" clip-path="url(#pbd9fe27b3d)" style="fill: #1f77b4"/>
   </g>
   <g id="patch_7">
    <path d="M 252.123401 438.64 
L 263.105063 438.64 
L 263.105063 245.910602 
L 252.123401 245.910602 
z
" clip-path="url(#pbd9fe27b3d)" style="fill: #1f77b4"/>
   </g>
   <g id="patch_8">
    <path d="M 296.050047 438.64 
L 307.031708 438.64 
L 307.031708 261.53609 
L 296.050047 261.53609 
z
" clip-path="url(#pbd9fe27b3d)" style="fill: #1f77b4"/>
   </g>
   <g id="patch_9">
    <path d="M 339.976693 438.64 
L 350.958354 438.64 
L 350.958354 224.13928 
L 339.976693 224.13928 
z
" clip-path="url(#pbd9fe27b3d)" style="fill: #1f77b4"/>
   </g>
   <g id="patch_10">
    <path d="M 383.903339 438.64 
L 394.885 438.64 
L 394.885 278.034903 
L 383.903339 278.034903 
z
" clip-path="url(#pbd9fe27b3d)" style="fill: #1f77b4"/>
   </g>
   <g id="patch_11">
    <path d="M 427.829984 438.64 
L 438.811646 438.64 
L 438.811646 289.591154 
L 427.829984 289.591154 
z
" clip-path="url(#pbd9fe27b3d)" style="fill: #1f77b4"/>
   </g>
   <g id="patch_12">
    <path d="M 471.75663 438.64 
L 482.738292 438.64 
L 482.738292 255.493461 
L 471.75663 255.493461 
z
" clip-path="url(#pbd9fe27b3d)" style="fill: #1f77b4"/>
   </g>
   <g id="patch_13">
    <path d="M 515.683276 438.64 
L 526.664937 438.64 
L 526.664937 328.547241 
L 515.683276 328.547241 
z
" clip-path="url(#pbd9fe27b3d)" style="fill: #1f77b4"/>
   </g>
   <g id="patch_14">
    <path d="M 559.609922 438.64 
L 570.591583 438.64 
L 570.591583 269.965216 
L 559.609922 269.965216 
z
" clip-path="url(#pbd9fe27b3d)" style="fill: #1f77b4"/>
   </g>
   <g id="patch_15">
    <path d="M 603.536567 438.64 
L 614.518229 438.64 
L 614.518229 256.309109 
L 603.536567 256.309109 
z
" clip-path="url(#pbd9fe27b3d)" style="fill: #1f77b4"/>
   </g>
   <g id="patch_16">
    <path d="M 647.463213 438.64 
L 658.444875 438.64 
L 658.444875 235.693111 
L 647.463213 235.693111 
z
" clip-path="url(#pbd9fe27b3d)" style="fill: #1f77b4"/>
   </g>
   <g id="patch_17">
    <path d="M 691.389859 438.64 
L 702.37152 438.64 
L 702.37152 249.557575 
L 691.389859 249.557575 
z
" clip-path="url(#pbd9fe27b3d)" style="fill: #1f77b4"/>
   </g>
   <g id="patch_18">
    <path d="M 87.39848 438.64 
L 98.380141 438.64 
L 98.380141 145.979054 
L 87.39848 145.979054 
z
" clip-path="url(#pbd9fe27b3d)" style="fill: #ff7f0e"/>
   </g>
   <g id="patch_19">
    <path d="M 131.325125 438.64 
L 142.306787 438.64 
L 142.306787 121.933138 
L 131.325125 121.933138 
z
" clip-path="url(#pbd9fe27b3d)" style="fill: #ff7f0e"/>
   </g>
   <g id="patch_20">
    <path d="M 175.251771 438.64 
L 186.233433 438.64 
L 186.233433 77.385863 
L 175.251771 77.385863 
z
" clip-path="url(#pbd9fe27b3d)" style="fill: #ff7f0e"/>
   </g>
   <g id="patch_21">
    <path d="M 219.178417 438.64 
L 230.160078 438.64 
L 230.160078 220.951997 
L 219.178417 220.951997 
z
" clip-path="url(#pbd9fe27b3d)" style="fill: #ff7f0e"/>
   </g>
   <g id="patch_22">
    <path d="M 263.105063 438.64 
L 274.086724 438.64 
L 274.086724 176.478725 
L 263.105063 176.478725 
z
" clip-path="url(#pbd9fe27b3d)" style="fill: #ff7f0e"/>
   </g>
   <g id="patch_23">
    <path d="M 307.031708 438.64 
L 318.01337 438.64 
L 318.01337 208.629654 
L 307.031708 208.629654 
z
" clip-path="url(#pbd9fe27b3d)" style="fill: #ff7f0e"/>
   </g>
   <g id="patch_24">
    <path d="M 350.958354 438.64 
L 361.940016 438.64 
L 361.940016 126.948714 
L 350.958354 126.948714 
z
" clip-path="url(#pbd9fe27b3d)" style="fill: #ff7f0e"/>
   </g>
   <g id="patch_25">
    <path d="M 394.885 438.64 
L 405.866661 438.64 
L 405.866661 229.106416 
L 394.885 229.106416 
z
" clip-path="url(#pbd9fe27b3d)" style="fill: #ff7f0e"/>
   </g>
   <g id="patch_26">
    <path d="M 438.811646 438.64 
L 449.793307 438.64 
L 449.793307 212.94325 
L 438.811646 212.94325 
z
" clip-path="url(#pbd9fe27b3d)" style="fill: #ff7f0e"/>
   </g>
   <g id="patch_27">
    <path d="M 482.738292 438.64 
L 493.719953 438.64 
L 493.719953 206.851541 
L 482.738292 206.851541 
z
" clip-path="url(#pbd9fe27b3d)" style="fill: #ff7f0e"/>
   </g>
   <g id="patch_28">
    <path d="M 526.664937 438.64 
L 537.646599 438.64 
L 537.646599 279.828896 
L 526.664937 279.828896 
z
" clip-path="url(#pbd9fe27b3d)" style="fill: #ff7f0e"/>
   </g>
   <g id="patch_29">
    <path d="M 570.591583 438.64 
L 581.573245 438.64 
L 581.573245 232.437028 
L 570.591583 232.437028 
z
" clip-path="url(#pbd9fe27b3d)" style="fill: #ff7f0e"/>
   </g>
   <g id="patch_30">
    <path d="M 614.518229 438.64 
L 625.49989 438.64 
L 625.49989 46.487619 
L 614.518229 46.487619 
z
" clip-path="url(#pbd9fe27b3d)" style="fill: #ff7f0e"/>
   </g>
   <g id="patch_31">
    <path d="M 658.444875 438.64 
L 669.426536 438.64 
L 669.426536 146.363545 
L 658.444875 146.363545 
z
" clip-path="url(#pbd9fe27b3d)" style="fill: #ff7f0e"/>
   </g>
   <g id="patch_32">
    <path d="M 702.37152 438.64 
L 713.353182 438.64 
L 713.353182 150.449167 
L 702.37152 150.449167 
z
" clip-path="url(#pbd9fe27b3d)" style="fill: #ff7f0e"/>
   </g>
   <g id="matplotlib.axis_1">
    <g id="xtick_1">
     <g id="line2d_1">
      <defs>
       <path id="mb2e1a01f2a" d="M 0 0 
L 0 3.5 
" style="stroke: #000000; stroke-width: 0.8"/>
      </defs>
      <g>
       <use xlink:href="#mb2e1a01f2a" x="87.39848" y="438.64" style="stroke: #000000; stroke-width: 0.8"/>
      </g>
     </g>
     <g id="text_1">
      <!-- Blown -->
      <g transform="translate(85.318792 475.913437) rotate(-90) scale(0.1 -0.1)">
       <defs>
        <path id="DejaVuSans-42" d="M 1259 2228 
L 1259 519 
L 2272 519 
Q 2781 519 3026 730 
Q 3272 941 3272 1375 
Q 3272 1813 3026 2020 
Q 2781 2228 2272 2228 
L 1259 2228 
z
M 1259 4147 
L 1259 2741 
L 2194 2741 
Q 2656 2741 2882 2914 
Q 3109 3088 3109 3444 
Q 3109 3797 2882 3972 
Q 2656 4147 2194 4147 
L 1259 4147 
z
M 628 4666 
L 2241 4666 
Q 2963 4666 3353 4366 
Q 3744 4066 3744 3513 
Q 3744 3084 3544 2831 
Q 3344 2578 2956 2516 
Q 3422 2416 3680 2098 
Q 3938 1781 3938 1306 
Q 3938 681 3513 340 
Q 3088 0 2303 0 
L 628 0 
L 628 4666 
z
" transform="scale(0.015625)"/>
        <path id="DejaVuSans-6c" d="M 603 4863 
L 1178 4863 
L 1178 0 
L 603 0 
L 603 4863 
z
" transform="scale(0.015625)"/>
        <path id="DejaVuSans-6f" d="M 1959 3097 
Q 1497 3097 1228 2736 
Q 959 2375 959 1747 
Q 959 1119 1226 758 
Q 1494 397 1959 397 
Q 2419 397 2687 759 
Q 2956 1122 2956 1747 
Q 2956 2369 2687 2733 
Q 2419 3097 1959 3097 
z
M 1959 3584 
Q 2709 3584 3137 3096 
Q 3566 2609 3566 1747 
Q 3566 888 3137 398 
Q 2709 -91 1959 -91 
Q 1206 -91 779 398 
Q 353 888 353 1747 
Q 353 2609 779 3096 
Q 1206 3584 1959 3584 
z
" transform="scale(0.015625)"/>
        <path id="DejaVuSans-77" d="M 269 3500 
L 844 3500 
L 1563 769 
L 2278 3500 
L 2956 3500 
L 3675 769 
L 4391 3500 
L 4966 3500 
L 4050 0 
L 3372 0 
L 2619 2869 
L 1863 0 
L 1184 0 
L 269 3500 
z
" transform="scale(0.015625)"/>
        <path id="DejaVuSans-6e" d="M 3513 2113 
L 3513 0 
L 2938 0 
L 2938 2094 
Q 2938 2591 2744 2837 
Q 2550 3084 2163 3084 
Q 1697 3084 1428 2787 
Q 1159 2491 1159 1978 
L 1159 0 
L 581 0 
L 581 3500 
L 1159 3500 
L 1159 2956 
Q 1366 3272 1645 3428 
Q 1925 3584 2291 3584 
Q 2894 3584 3203 3211 
Q 3513 2838 3513 2113 
z
" transform="scale(0.015625)"/>
       </defs>
       <use xlink:href="#DejaVuSans-42"/>
       <use xlink:href="#DejaVuSans-6c" transform="translate(68.603516 0)"/>
       <use xlink:href="#DejaVuSans-6f" transform="translate(96.386719 0)"/>
       <use xlink:href="#DejaVuSans-77" transform="translate(157.568359 0)"/>
       <use xlink:href="#DejaVuSans-6e" transform="translate(239.355469 0)"/>
      </g>
     </g>
    </g>
    <g id="xtick_2">
     <g id="line2d_2">
      <g>
       <use xlink:href="#mb2e1a01f2a" x="131.325125" y="438.64" style="stroke: #000000; stroke-width: 0.8"/>
      </g>
     </g>
     <g id="text_2">
      <!-- Bowed -->
      <g transform="translate(129.245438 479.299375) rotate(-90) scale(0.1 -0.1)">
       <defs>
        <path id="DejaVuSans-65" d="M 3597 1894 
L 3597 1613 
L 953 1613 
Q 991 1019 1311 708 
Q 1631 397 2203 397 
Q 2534 397 2845 478 
Q 3156 559 3463 722 
L 3463 178 
Q 3153 47 2828 -22 
Q 2503 -91 2169 -91 
Q 1331 -91 842 396 
Q 353 884 353 1716 
Q 353 2575 817 3079 
Q 1281 3584 2069 3584 
Q 2775 3584 3186 3129 
Q 3597 2675 3597 1894 
z
M 3022 2063 
Q 3016 2534 2758 2815 
Q 2500 3097 2075 3097 
Q 1594 3097 1305 2825 
Q 1016 2553 972 2059 
L 3022 2063 
z
" transform="scale(0.015625)"/>
        <path id="DejaVuSans-64" d="M 2906 2969 
L 2906 4863 
L 3481 4863 
L 3481 0 
L 2906 0 
L 2906 525 
Q 2725 213 2448 61 
Q 2172 -91 1784 -91 
Q 1150 -91 751 415 
Q 353 922 353 1747 
Q 353 2572 751 3078 
Q 1150 3584 1784 3584 
Q 2172 3584 2448 3432 
Q 2725 3281 2906 2969 
z
M 947 1747 
Q 947 1113 1208 752 
Q 1469 391 1925 391 
Q 2381 391 2643 752 
Q 2906 1113 2906 1747 
Q 2906 2381 2643 2742 
Q 2381 3103 1925 3103 
Q 1469 3103 1208 2742 
Q 947 2381 947 1747 
z
" transform="scale(0.015625)"/>
       </defs>
       <use xlink:href="#DejaVuSans-42"/>
       <use xlink:href="#DejaVuSans-6f" transform="translate(68.603516 0)"/>
       <use xlink:href="#DejaVuSans-77" transform="translate(129.785156 0)"/>
       <use xlink:href="#DejaVuSans-65" transform="translate(211.572266 0)"/>
       <use xlink:href="#DejaVuSans-64" transform="translate(273.095703 0)"/>
      </g>
     </g>
    </g>
    <g id="xtick_3">
     <g id="line2d_3">
      <g>
       <use xlink:href="#mb2e1a01f2a" x="175.251771" y="438.64" style="stroke: #000000; stroke-width: 0.8"/>
      </g>
     </g>
     <g id="text_3">
      <!-- Feedback FM -->
      <g transform="translate(173.172084 510.819687) rotate(-90) scale(0.1 -0.1)">
       <defs>
        <path id="DejaVuSans-46" d="M 628 4666 
L 3309 4666 
L 3309 4134 
L 1259 4134 
L 1259 2759 
L 3109 2759 
L 3109 2228 
L 1259 2228 
L 1259 0 
L 628 0 
L 628 4666 
z
" transform="scale(0.015625)"/>
        <path id="DejaVuSans-62" d="M 3116 1747 
Q 3116 2381 2855 2742 
Q 2594 3103 2138 3103 
Q 1681 3103 1420 2742 
Q 1159 2381 1159 1747 
Q 1159 1113 1420 752 
Q 1681 391 2138 391 
Q 2594 391 2855 752 
Q 3116 1113 3116 1747 
z
M 1159 2969 
Q 1341 3281 1617 3432 
Q 1894 3584 2278 3584 
Q 2916 3584 3314 3078 
Q 3713 2572 3713 1747 
Q 3713 922 3314 415 
Q 2916 -91 2278 -91 
Q 1894 -91 1617 61 
Q 1341 213 1159 525 
L 1159 0 
L 581 0 
L 581 4863 
L 1159 4863 
L 1159 2969 
z
" transform="scale(0.015625)"/>
        <path id="DejaVuSans-61" d="M 2194 1759 
Q 1497 1759 1228 1600 
Q 959 1441 959 1056 
Q 959 750 1161 570 
Q 1363 391 1709 391 
Q 2188 391 2477 730 
Q 2766 1069 2766 1631 
L 2766 1759 
L 2194 1759 
z
M 3341 1997 
L 3341 0 
L 2766 0 
L 2766 531 
Q 2569 213 2275 61 
Q 1981 -91 1556 -91 
Q 1019 -91 701 211 
Q 384 513 384 1019 
Q 384 1609 779 1909 
Q 1175 2209 1959 2209 
L 2766 2209 
L 2766 2266 
Q 2766 2663 2505 2880 
Q 2244 3097 1772 3097 
Q 1472 3097 1187 3025 
Q 903 2953 641 2809 
L 641 3341 
Q 956 3463 1253 3523 
Q 1550 3584 1831 3584 
Q 2591 3584 2966 3190 
Q 3341 2797 3341 1997 
z
" transform="scale(0.015625)"/>
        <path id="DejaVuSans-63" d="M 3122 3366 
L 3122 2828 
Q 2878 2963 2633 3030 
Q 2388 3097 2138 3097 
Q 1578 3097 1268 2742 
Q 959 2388 959 1747 
Q 959 1106 1268 751 
Q 1578 397 2138 397 
Q 2388 397 2633 464 
Q 2878 531 3122 666 
L 3122 134 
Q 2881 22 2623 -34 
Q 2366 -91 2075 -91 
Q 1284 -91 818 406 
Q 353 903 353 1747 
Q 353 2603 823 3093 
Q 1294 3584 2113 3584 
Q 2378 3584 2631 3529 
Q 2884 3475 3122 3366 
z
" transform="scale(0.015625)"/>
        <path id="DejaVuSans-6b" d="M 581 4863 
L 1159 4863 
L 1159 1991 
L 2875 3500 
L 3609 3500 
L 1753 1863 
L 3688 0 
L 2938 0 
L 1159 1709 
L 1159 0 
L 581 0 
L 581 4863 
z
" transform="scale(0.015625)"/>
        <path id="DejaVuSans-20" transform="scale(0.015625)"/>
        <path id="DejaVuSans-4d" d="M 628 4666 
L 1569 4666 
L 2759 1491 
L 3956 4666 
L 4897 4666 
L 4897 0 
L 4281 0 
L 4281 4097 
L 3078 897 
L 2444 897 
L 1241 4097 
L 1241 0 
L 628 0 
L 628 4666 
z
" transform="scale(0.015625)"/>
       </defs>
       <use xlink:href="#DejaVuSans-46"/>
       <use xlink:href="#DejaVuSans-65" transform="translate(52.019531 0)"/>
       <use xlink:href="#DejaVuSans-65" transform="translate(113.542969 0)"/>
       <use xlink:href="#DejaVuSans-64" transform="translate(175.066406 0)"/>
       <use xlink:href="#DejaVuSans-62" transform="translate(238.542969 0)"/>
       <use xlink:href="#DejaVuSans-61" transform="translate(302.019531 0)"/>
       <use xlink:href="#DejaVuSans-63" transform="translate(363.298828 0)"/>
       <use xlink:href="#DejaVuSans-6b" transform="translate(418.279297 0)"/>
       <use xlink:href="#DejaVuSans-20" transform="translate(476.189453 0)"/>
       <use xlink:href="#DejaVuSans-46" transform="translate(507.976562 0)"/>
       <use xlink:href="#DejaVuSans-4d" transform="translate(565.496094 0)"/>
      </g>
     </g>
    </g>
    <g id="xtick_4">
     <g id="line2d_4">
      <g>
       <use xlink:href="#mb2e1a01f2a" x="219.178417" y="438.64" style="stroke: #000000; stroke-width: 0.8"/>
      </g>
     </g>
     <g id="text_4">
      <!-- Filter BP -->
      <g transform="translate(217.098729 486.475937) rotate(-90) scale(0.1 -0.1)">
       <defs>
        <path id="DejaVuSans-69" d="M 603 3500 
L 1178 3500 
L 1178 0 
L 603 0 
L 603 3500 
z
M 603 4863 
L 1178 4863 
L 1178 4134 
L 603 4134 
L 603 4863 
z
" transform="scale(0.015625)"/>
        <path id="DejaVuSans-74" d="M 1172 4494 
L 1172 3500 
L 2356 3500 
L 2356 3053 
L 1172 3053 
L 1172 1153 
Q 1172 725 1289 603 
Q 1406 481 1766 481 
L 2356 481 
L 2356 0 
L 1766 0 
Q 1100 0 847 248 
Q 594 497 594 1153 
L 594 3053 
L 172 3053 
L 172 3500 
L 594 3500 
L 594 4494 
L 1172 4494 
z
" transform="scale(0.015625)"/>
        <path id="DejaVuSans-72" d="M 2631 2963 
Q 2534 3019 2420 3045 
Q 2306 3072 2169 3072 
Q 1681 3072 1420 2755 
Q 1159 2438 1159 1844 
L 1159 0 
L 581 0 
L 581 3500 
L 1159 3500 
L 1159 2956 
Q 1341 3275 1631 3429 
Q 1922 3584 2338 3584 
Q 2397 3584 2469 3576 
Q 2541 3569 2628 3553 
L 2631 2963 
z
" transform="scale(0.015625)"/>
        <path id="DejaVuSans-50" d="M 1259 4147 
L 1259 2394 
L 2053 2394 
Q 2494 2394 2734 2622 
Q 2975 2850 2975 3272 
Q 2975 3691 2734 3919 
Q 2494 4147 2053 4147 
L 1259 4147 
z
M 628 4666 
L 2053 4666 
Q 2838 4666 3239 4311 
Q 3641 3956 3641 3272 
Q 3641 2581 3239 2228 
Q 2838 1875 2053 1875 
L 1259 1875 
L 1259 0 
L 628 0 
L 628 4666 
z
" transform="scale(0.015625)"/>
       </defs>
       <use xlink:href="#DejaVuSans-46"/>
       <use xlink:href="#DejaVuSans-69" transform="translate(50.269531 0)"/>
       <use xlink:href="#DejaVuSans-6c" transform="translate(78.052734 0)"/>
       <use xlink:href="#DejaVuSans-74" transform="translate(105.835938 0)"/>
       <use xlink:href="#DejaVuSans-65" transform="translate(145.044922 0)"/>
       <use xlink:href="#DejaVuSans-72" transform="translate(206.568359 0)"/>
       <use xlink:href="#DejaVuSans-20" transform="translate(247.681641 0)"/>
       <use xlink:href="#DejaVuSans-42" transform="translate(279.46875 0)"/>
       <use xlink:href="#DejaVuSans-50" transform="translate(348.072266 0)"/>
      </g>
     </g>
    </g>
    <g id="xtick_5">
     <g id="line2d_5">
      <g>
       <use xlink:href="#mb2e1a01f2a" x="263.105063" y="438.64" style="stroke: #000000; stroke-width: 0.8"/>
      </g>
     </g>
     <g id="text_5">
      <!-- Kick -->
      <g transform="translate(261.025375 466.265) rotate(-90) scale(0.1 -0.1)">
       <defs>
        <path id="DejaVuSans-4b" d="M 628 4666 
L 1259 4666 
L 1259 2694 
L 3353 4666 
L 4166 4666 
L 1850 2491 
L 4331 0 
L 3500 0 
L 1259 2247 
L 1259 0 
L 628 0 
L 628 4666 
z
" transform="scale(0.015625)"/>
       </defs>
       <use xlink:href="#DejaVuSans-4b"/>
       <use xlink:href="#DejaVuSans-69" transform="translate(65.576172 0)"/>
       <use xlink:href="#DejaVuSans-63" transform="translate(93.359375 0)"/>
       <use xlink:href="#DejaVuSans-6b" transform="translate(148.339844 0)"/>
      </g>
     </g>
    </g>
    <g id="xtick_6">
     <g id="line2d_6">
      <g>
       <use xlink:href="#mb2e1a01f2a" x="307.031708" y="438.64" style="stroke: #000000; stroke-width: 0.8"/>
      </g>
     </g>
     <g id="text_6">
      <!-- Plucked -->
      <g transform="translate(304.952021 484.213437) rotate(-90) scale(0.1 -0.1)">
       <defs>
        <path id="DejaVuSans-75" d="M 544 1381 
L 544 3500 
L 1119 3500 
L 1119 1403 
Q 1119 906 1312 657 
Q 1506 409 1894 409 
Q 2359 409 2629 706 
Q 2900 1003 2900 1516 
L 2900 3500 
L 3475 3500 
L 3475 0 
L 2900 0 
L 2900 538 
Q 2691 219 2414 64 
Q 2138 -91 1772 -91 
Q 1169 -91 856 284 
Q 544 659 544 1381 
z
M 1991 3584 
L 1991 3584 
z
" transform="scale(0.015625)"/>
       </defs>
       <use xlink:href="#DejaVuSans-50"/>
       <use xlink:href="#DejaVuSans-6c" transform="translate(60.302734 0)"/>
       <use xlink:href="#DejaVuSans-75" transform="translate(88.085938 0)"/>
       <use xlink:href="#DejaVuSans-63" transform="translate(151.464844 0)"/>
       <use xlink:href="#DejaVuSans-6b" transform="translate(206.445312 0)"/>
       <use xlink:href="#DejaVuSans-65" transform="translate(260.730469 0)"/>
       <use xlink:href="#DejaVuSans-64" transform="translate(322.253906 0)"/>
      </g>
     </g>
    </g>
    <g id="xtick_7">
     <g id="line2d_7">
      <g>
       <use xlink:href="#mb2e1a01f2a" x="350.958354" y="438.64" style="stroke: #000000; stroke-width: 0.8"/>
      </g>
     </g>
     <g id="text_7">
      <!-- Saw Comb -->
      <g transform="translate(348.878667 498.663437) rotate(-90) scale(0.1 -0.1)">
       <defs>
        <path id="DejaVuSans-53" d="M 3425 4513 
L 3425 3897 
Q 3066 4069 2747 4153 
Q 2428 4238 2131 4238 
Q 1616 4238 1336 4038 
Q 1056 3838 1056 3469 
Q 1056 3159 1242 3001 
Q 1428 2844 1947 2747 
L 2328 2669 
Q 3034 2534 3370 2195 
Q 3706 1856 3706 1288 
Q 3706 609 3251 259 
Q 2797 -91 1919 -91 
Q 1588 -91 1214 -16 
Q 841 59 441 206 
L 441 856 
Q 825 641 1194 531 
Q 1563 422 1919 422 
Q 2459 422 2753 634 
Q 3047 847 3047 1241 
Q 3047 1584 2836 1778 
Q 2625 1972 2144 2069 
L 1759 2144 
Q 1053 2284 737 2584 
Q 422 2884 422 3419 
Q 422 4038 858 4394 
Q 1294 4750 2059 4750 
Q 2388 4750 2728 4690 
Q 3069 4631 3425 4513 
z
" transform="scale(0.015625)"/>
        <path id="DejaVuSans-43" d="M 4122 4306 
L 4122 3641 
Q 3803 3938 3442 4084 
Q 3081 4231 2675 4231 
Q 1875 4231 1450 3742 
Q 1025 3253 1025 2328 
Q 1025 1406 1450 917 
Q 1875 428 2675 428 
Q 3081 428 3442 575 
Q 3803 722 4122 1019 
L 4122 359 
Q 3791 134 3420 21 
Q 3050 -91 2638 -91 
Q 1578 -91 968 557 
Q 359 1206 359 2328 
Q 359 3453 968 4101 
Q 1578 4750 2638 4750 
Q 3056 4750 3426 4639 
Q 3797 4528 4122 4306 
z
" transform="scale(0.015625)"/>
        <path id="DejaVuSans-6d" d="M 3328 2828 
Q 3544 3216 3844 3400 
Q 4144 3584 4550 3584 
Q 5097 3584 5394 3201 
Q 5691 2819 5691 2113 
L 5691 0 
L 5113 0 
L 5113 2094 
Q 5113 2597 4934 2840 
Q 4756 3084 4391 3084 
Q 3944 3084 3684 2787 
Q 3425 2491 3425 1978 
L 3425 0 
L 2847 0 
L 2847 2094 
Q 2847 2600 2669 2842 
Q 2491 3084 2119 3084 
Q 1678 3084 1418 2786 
Q 1159 2488 1159 1978 
L 1159 0 
L 581 0 
L 581 3500 
L 1159 3500 
L 1159 2956 
Q 1356 3278 1631 3431 
Q 1906 3584 2284 3584 
Q 2666 3584 2933 3390 
Q 3200 3197 3328 2828 
z
" transform="scale(0.015625)"/>
       </defs>
       <use xlink:href="#DejaVuSans-53"/>
       <use xlink:href="#DejaVuSans-61" transform="translate(63.476562 0)"/>
       <use xlink:href="#DejaVuSans-77" transform="translate(124.755859 0)"/>
       <use xlink:href="#DejaVuSans-20" transform="translate(206.542969 0)"/>
       <use xlink:href="#DejaVuSans-43" transform="translate(238.330078 0)"/>
       <use xlink:href="#DejaVuSans-6f" transform="translate(308.154297 0)"/>
       <use xlink:href="#DejaVuSans-6d" transform="translate(369.335938 0)"/>
       <use xlink:href="#DejaVuSans-62" transform="translate(466.748047 0)"/>
      </g>
     </g>
    </g>
    <g id="xtick_8">
     <g id="line2d_8">
      <g>
       <use xlink:href="#mb2e1a01f2a" x="394.885" y="438.64" style="stroke: #000000; stroke-width: 0.8"/>
      </g>
     </g>
     <g id="text_8">
      <!-- Saw Swarm -->
      <g transform="translate(392.805313 503.804062) rotate(-90) scale(0.1 -0.1)">
       <use xlink:href="#DejaVuSans-53"/>
       <use xlink:href="#DejaVuSans-61" transform="translate(63.476562 0)"/>
       <use xlink:href="#DejaVuSans-77" transform="translate(124.755859 0)"/>
       <use xlink:href="#DejaVuSans-20" transform="translate(206.542969 0)"/>
       <use xlink:href="#DejaVuSans-53" transform="translate(238.330078 0)"/>
       <use xlink:href="#DejaVuSans-77" transform="translate(301.806641 0)"/>
       <use xlink:href="#DejaVuSans-61" transform="translate(383.59375 0)"/>
       <use xlink:href="#DejaVuSans-72" transform="translate(444.873047 0)"/>
       <use xlink:href="#DejaVuSans-6d" transform="translate(484.236328 0)"/>
      </g>
     </g>
    </g>
    <g id="xtick_9">
     <g id="line2d_9">
      <g>
       <use xlink:href="#mb2e1a01f2a" x="438.811646" y="438.64" style="stroke: #000000; stroke-width: 0.8"/>
      </g>
     </g>
     <g id="text_9">
      <!-- Triple Saw -->
      <g transform="translate(436.731958 496.274375) rotate(-90) scale(0.1 -0.1)">
       <defs>
        <path id="DejaVuSans-54" d="M -19 4666 
L 3928 4666 
L 3928 4134 
L 2272 4134 
L 2272 0 
L 1638 0 
L 1638 4134 
L -19 4134 
L -19 4666 
z
" transform="scale(0.015625)"/>
        <path id="DejaVuSans-70" d="M 1159 525 
L 1159 -1331 
L 581 -1331 
L 581 3500 
L 1159 3500 
L 1159 2969 
Q 1341 3281 1617 3432 
Q 1894 3584 2278 3584 
Q 2916 3584 3314 3078 
Q 3713 2572 3713 1747 
Q 3713 922 3314 415 
Q 2916 -91 2278 -91 
Q 1894 -91 1617 61 
Q 1341 213 1159 525 
z
M 3116 1747 
Q 3116 2381 2855 2742 
Q 2594 3103 2138 3103 
Q 1681 3103 1420 2742 
Q 1159 2381 1159 1747 
Q 1159 1113 1420 752 
Q 1681 391 2138 391 
Q 2594 391 2855 752 
Q 3116 1113 3116 1747 
z
" transform="scale(0.015625)"/>
       </defs>
       <use xlink:href="#DejaVuSans-54"/>
       <use xlink:href="#DejaVuSans-72" transform="translate(46.333984 0)"/>
       <use xlink:href="#DejaVuSans-69" transform="translate(87.447266 0)"/>
       <use xlink:href="#DejaVuSans-70" transform="translate(115.230469 0)"/>
       <use xlink:href="#DejaVuSans-6c" transform="translate(178.707031 0)"/>
       <use xlink:href="#DejaVuSans-65" transform="translate(206.490234 0)"/>
       <use xlink:href="#DejaVuSans-20" transform="translate(268.013672 0)"/>
       <use xlink:href="#DejaVuSans-53" transform="translate(299.800781 0)"/>
       <use xlink:href="#DejaVuSans-61" transform="translate(363.277344 0)"/>
       <use xlink:href="#DejaVuSans-77" transform="translate(424.556641 0)"/>
      </g>
     </g>
    </g>
    <g id="xtick_10">
     <g id="line2d_10">
      <g>
       <use xlink:href="#mb2e1a01f2a" x="482.738292" y="438.64" style="stroke: #000000; stroke-width: 0.8"/>
      </g>
     </g>
     <g id="text_10">
      <!-- Triple Sine -->
      <g transform="translate(480.658604 497.236875) rotate(-90) scale(0.1 -0.1)">
       <use xlink:href="#DejaVuSans-54"/>
       <use xlink:href="#DejaVuSans-72" transform="translate(46.333984 0)"/>
       <use xlink:href="#DejaVuSans-69" transform="translate(87.447266 0)"/>
       <use xlink:href="#DejaVuSans-70" transform="translate(115.230469 0)"/>
       <use xlink:href="#DejaVuSans-6c" transform="translate(178.707031 0)"/>
       <use xlink:href="#DejaVuSans-65" transform="translate(206.490234 0)"/>
       <use xlink:href="#DejaVuSans-20" transform="translate(268.013672 0)"/>
       <use xlink:href="#DejaVuSans-53" transform="translate(299.800781 0)"/>
       <use xlink:href="#DejaVuSans-69" transform="translate(363.277344 0)"/>
       <use xlink:href="#DejaVuSans-6e" transform="translate(391.060547 0)"/>
       <use xlink:href="#DejaVuSans-65" transform="translate(454.439453 0)"/>
      </g>
     </g>
    </g>
    <g id="xtick_11">
     <g id="line2d_11">
      <g>
       <use xlink:href="#mb2e1a01f2a" x="526.664937" y="438.64" style="stroke: #000000; stroke-width: 0.8"/>
      </g>
     </g>
     <g id="text_11">
      <!-- Triple Square -->
      <g transform="translate(524.58525 510.82125) rotate(-90) scale(0.1 -0.1)">
       <defs>
        <path id="DejaVuSans-71" d="M 947 1747 
Q 947 1113 1208 752 
Q 1469 391 1925 391 
Q 2381 391 2643 752 
Q 2906 1113 2906 1747 
Q 2906 2381 2643 2742 
Q 2381 3103 1925 3103 
Q 1469 3103 1208 2742 
Q 947 2381 947 1747 
z
M 2906 525 
Q 2725 213 2448 61 
Q 2172 -91 1784 -91 
Q 1150 -91 751 415 
Q 353 922 353 1747 
Q 353 2572 751 3078 
Q 1150 3584 1784 3584 
Q 2172 3584 2448 3432 
Q 2725 3281 2906 2969 
L 2906 3500 
L 3481 3500 
L 3481 -1331 
L 2906 -1331 
L 2906 525 
z
" transform="scale(0.015625)"/>
       </defs>
       <use xlink:href="#DejaVuSans-54"/>
       <use xlink:href="#DejaVuSans-72" transform="translate(46.333984 0)"/>
       <use xlink:href="#DejaVuSans-69" transform="translate(87.447266 0)"/>
       <use xlink:href="#DejaVuSans-70" transform="translate(115.230469 0)"/>
       <use xlink:href="#DejaVuSans-6c" transform="translate(178.707031 0)"/>
       <use xlink:href="#DejaVuSans-65" transform="translate(206.490234 0)"/>
       <use xlink:href="#DejaVuSans-20" transform="translate(268.013672 0)"/>
       <use xlink:href="#DejaVuSans-53" transform="translate(299.800781 0)"/>
       <use xlink:href="#DejaVuSans-71" transform="translate(363.277344 0)"/>
       <use xlink:href="#DejaVuSans-75" transform="translate(426.753906 0)"/>
       <use xlink:href="#DejaVuSans-61" transform="translate(490.132812 0)"/>
       <use xlink:href="#DejaVuSans-72" transform="translate(551.412109 0)"/>
       <use xlink:href="#DejaVuSans-65" transform="translate(590.275391 0)"/>
      </g>
     </g>
    </g>
    <g id="xtick_12">
     <g id="line2d_12">
      <g>
       <use xlink:href="#mb2e1a01f2a" x="570.591583" y="438.64" style="stroke: #000000; stroke-width: 0.8"/>
      </g>
     </g>
     <g id="text_12">
      <!-- Triple Triangle -->
      <g transform="translate(568.511896 514.886875) rotate(-90) scale(0.1 -0.1)">
       <defs>
        <path id="DejaVuSans-67" d="M 2906 1791 
Q 2906 2416 2648 2759 
Q 2391 3103 1925 3103 
Q 1463 3103 1205 2759 
Q 947 2416 947 1791 
Q 947 1169 1205 825 
Q 1463 481 1925 481 
Q 2391 481 2648 825 
Q 2906 1169 2906 1791 
z
M 3481 434 
Q 3481 -459 3084 -895 
Q 2688 -1331 1869 -1331 
Q 1566 -1331 1297 -1286 
Q 1028 -1241 775 -1147 
L 775 -588 
Q 1028 -725 1275 -790 
Q 1522 -856 1778 -856 
Q 2344 -856 2625 -561 
Q 2906 -266 2906 331 
L 2906 616 
Q 2728 306 2450 153 
Q 2172 0 1784 0 
Q 1141 0 747 490 
Q 353 981 353 1791 
Q 353 2603 747 3093 
Q 1141 3584 1784 3584 
Q 2172 3584 2450 3431 
Q 2728 3278 2906 2969 
L 2906 3500 
L 3481 3500 
L 3481 434 
z
" transform="scale(0.015625)"/>
       </defs>
       <use xlink:href="#DejaVuSans-54"/>
       <use xlink:href="#DejaVuSans-72" transform="translate(46.333984 0)"/>
       <use xlink:href="#DejaVuSans-69" transform="translate(87.447266 0)"/>
       <use xlink:href="#DejaVuSans-70" transform="translate(115.230469 0)"/>
       <use xlink:href="#DejaVuSans-6c" transform="translate(178.707031 0)"/>
       <use xlink:href="#DejaVuSans-65" transform="translate(206.490234 0)"/>
       <use xlink:href="#DejaVuSans-20" transform="translate(268.013672 0)"/>
       <use xlink:href="#DejaVuSans-54" transform="translate(299.800781 0)"/>
       <use xlink:href="#DejaVuSans-72" transform="translate(346.134766 0)"/>
       <use xlink:href="#DejaVuSans-69" transform="translate(387.248047 0)"/>
       <use xlink:href="#DejaVuSans-61" transform="translate(415.03125 0)"/>
       <use xlink:href="#DejaVuSans-6e" transform="translate(476.310547 0)"/>
       <use xlink:href="#DejaVuSans-67" transform="translate(539.689453 0)"/>
       <use xlink:href="#DejaVuSans-6c" transform="translate(603.166016 0)"/>
       <use xlink:href="#DejaVuSans-65" transform="translate(630.949219 0)"/>
      </g>
     </g>
    </g>
    <g id="xtick_13">
     <g id="line2d_13">
      <g>
       <use xlink:href="#mb2e1a01f2a" x="614.518229" y="438.64" style="stroke: #000000; stroke-width: 0.8"/>
      </g>
     </g>
     <g id="text_13">
      <!-- Twin Peaks -->
      <g transform="translate(612.438541 499.518125) rotate(-90) scale(0.1 -0.1)">
       <defs>
        <path id="DejaVuSans-73" d="M 2834 3397 
L 2834 2853 
Q 2591 2978 2328 3040 
Q 2066 3103 1784 3103 
Q 1356 3103 1142 2972 
Q 928 2841 928 2578 
Q 928 2378 1081 2264 
Q 1234 2150 1697 2047 
L 1894 2003 
Q 2506 1872 2764 1633 
Q 3022 1394 3022 966 
Q 3022 478 2636 193 
Q 2250 -91 1575 -91 
Q 1294 -91 989 -36 
Q 684 19 347 128 
L 347 722 
Q 666 556 975 473 
Q 1284 391 1588 391 
Q 1994 391 2212 530 
Q 2431 669 2431 922 
Q 2431 1156 2273 1281 
Q 2116 1406 1581 1522 
L 1381 1569 
Q 847 1681 609 1914 
Q 372 2147 372 2553 
Q 372 3047 722 3315 
Q 1072 3584 1716 3584 
Q 2034 3584 2315 3537 
Q 2597 3491 2834 3397 
z
" transform="scale(0.015625)"/>
       </defs>
       <use xlink:href="#DejaVuSans-54"/>
       <use xlink:href="#DejaVuSans-77" transform="translate(44.583984 0)"/>
       <use xlink:href="#DejaVuSans-69" transform="translate(126.371094 0)"/>
       <use xlink:href="#DejaVuSans-6e" transform="translate(154.154297 0)"/>
       <use xlink:href="#DejaVuSans-20" transform="translate(217.533203 0)"/>
       <use xlink:href="#DejaVuSans-50" transform="translate(249.320312 0)"/>
       <use xlink:href="#DejaVuSans-65" transform="translate(305.998047 0)"/>
       <use xlink:href="#DejaVuSans-61" transform="translate(367.521484 0)"/>
       <use xlink:href="#DejaVuSans-6b" transform="translate(428.800781 0)"/>
       <use xlink:href="#DejaVuSans-73" transform="translate(486.710938 0)"/>
      </g>
     </g>
    </g>
    <g id="xtick_14">
     <g id="line2d_14">
      <g>
       <use xlink:href="#mb2e1a01f2a" x="658.444875" y="438.64" style="stroke: #000000; stroke-width: 0.8"/>
      </g>
     </g>
     <g id="text_14">
      <!-- Vosim -->
      <g transform="translate(656.365187 475.5525) rotate(-90) scale(0.1 -0.1)">
       <defs>
        <path id="DejaVuSans-56" d="M 1831 0 
L 50 4666 
L 709 4666 
L 2188 738 
L 3669 4666 
L 4325 4666 
L 2547 0 
L 1831 0 
z
" transform="scale(0.015625)"/>
       </defs>
       <use xlink:href="#DejaVuSans-56"/>
       <use xlink:href="#DejaVuSans-6f" transform="translate(60.658203 0)"/>
       <use xlink:href="#DejaVuSans-73" transform="translate(121.839844 0)"/>
       <use xlink:href="#DejaVuSans-69" transform="translate(173.939453 0)"/>
       <use xlink:href="#DejaVuSans-6d" transform="translate(201.722656 0)"/>
      </g>
     </g>
    </g>
    <g id="xtick_15">
     <g id="line2d_15">
      <g>
       <use xlink:href="#mb2e1a01f2a" x="702.37152" y="438.64" style="stroke: #000000; stroke-width: 0.8"/>
      </g>
     </g>
     <g id="text_15">
      <!-- Vowel -->
      <g transform="translate(700.291833 474.93375) rotate(-90) scale(0.1 -0.1)">
       <use xlink:href="#DejaVuSans-56"/>
       <use xlink:href="#DejaVuSans-6f" transform="translate(60.658203 0)"/>
       <use xlink:href="#DejaVuSans-77" transform="translate(121.839844 0)"/>
       <use xlink:href="#DejaVuSans-65" transform="translate(203.626953 0)"/>
       <use xlink:href="#DejaVuSans-6c" transform="translate(265.150391 0)"/>
      </g>
     </g>
    </g>
    <g id="text_16">
     <!-- Braids macro oscillator shape -->
     <g transform="translate(320.906094 526.485312) scale(0.1 -0.1)">
      <defs>
       <path id="DejaVuSans-68" d="M 3513 2113 
L 3513 0 
L 2938 0 
L 2938 2094 
Q 2938 2591 2744 2837 
Q 2550 3084 2163 3084 
Q 1697 3084 1428 2787 
Q 1159 2491 1159 1978 
L 1159 0 
L 581 0 
L 581 4863 
L 1159 4863 
L 1159 2956 
Q 1366 3272 1645 3428 
Q 1925 3584 2291 3584 
Q 2894 3584 3203 3211 
Q 3513 2838 3513 2113 
z
" transform="scale(0.015625)"/>
      </defs>
      <use xlink:href="#DejaVuSans-42"/>
      <use xlink:href="#DejaVuSans-72" transform="translate(68.603516 0)"/>
      <use xlink:href="#DejaVuSans-61" transform="translate(109.716797 0)"/>
      <use xlink:href="#DejaVuSans-69" transform="translate(170.996094 0)"/>
      <use xlink:href="#DejaVuSans-64" transform="translate(198.779297 0)"/>
      <use xlink:href="#DejaVuSans-73" transform="translate(262.255859 0)"/>
      <use xlink:href="#DejaVuSans-20" transform="translate(314.355469 0)"/>
      <use xlink:href="#DejaVuSans-6d" transform="translate(346.142578 0)"/>
      <use xlink:href="#DejaVuSans-61" transform="translate(443.554688 0)"/>
      <use xlink:href="#DejaVuSans-63" transform="translate(504.833984 0)"/>
      <use xlink:href="#DejaVuSans-72" transform="translate(559.814453 0)"/>
      <use xlink:href="#DejaVuSans-6f" transform="translate(598.677734 0)"/>
      <use xlink:href="#DejaVuSans-20" transform="translate(659.859375 0)"/>
      <use xlink:href="#DejaVuSans-6f" transform="translate(691.646484 0)"/>
      <use xlink:href="#DejaVuSans-73" transform="translate(752.828125 0)"/>
      <use xlink:href="#DejaVuSans-63" transform="translate(804.927734 0)"/>
      <use xlink:href="#DejaVuSans-69" transform="translate(859.908203 0)"/>
      <use xlink:href="#DejaVuSans-6c" transform="translate(887.691406 0)"/>
      <use xlink:href="#DejaVuSans-6c" transform="translate(915.474609 0)"/>
      <use xlink:href="#DejaVuSans-61" transform="translate(943.257812 0)"/>
      <use xlink:href="#DejaVuSans-74" transform="translate(1004.537109 0)"/>
      <use xlink:href="#DejaVuSans-6f" transform="translate(1043.746094 0)"/>
      <use xlink:href="#DejaVuSans-72" transform="translate(1104.927734 0)"/>
      <use xlink:href="#DejaVuSans-20" transform="translate(1146.041016 0)"/>
      <use xlink:href="#DejaVuSans-73" transform="translate(1177.828125 0)"/>
      <use xlink:href="#DejaVuSans-68" transform="translate(1229.927734 0)"/>
      <use xlink:href="#DejaVuSans-61" transform="translate(1293.306641 0)"/>
      <use xlink:href="#DejaVuSans-70" transform="translate(1354.585938 0)"/>
      <use xlink:href="#DejaVuSans-65" transform="translate(1418.0625 0)"/>
     </g>
    </g>
   </g>
   <g id="matplotlib.axis_2">
    <g id="ytick_1">
     <g id="line2d_16">
      <defs>
       <path id="m69e35bfad4" d="M 0 0 
L -3.5 0 
" style="stroke: #000000; stroke-width: 0.8"/>
      </defs>
      <g>
       <use xlink:href="#m69e35bfad4" x="44.57" y="438.64" style="stroke: #000000; stroke-width: 0.8"/>
      </g>
     </g>
     <g id="text_17">
      <!-- 0 -->
      <g transform="translate(31.2075 442.439219) scale(0.1 -0.1)">
       <defs>
        <path id="DejaVuSans-30" d="M 2034 4250 
Q 1547 4250 1301 3770 
Q 1056 3291 1056 2328 
Q 1056 1369 1301 889 
Q 1547 409 2034 409 
Q 2525 409 2770 889 
Q 3016 1369 3016 2328 
Q 3016 3291 2770 3770 
Q 2525 4250 2034 4250 
z
M 2034 4750 
Q 2819 4750 3233 4129 
Q 3647 3509 3647 2328 
Q 3647 1150 3233 529 
Q 2819 -91 2034 -91 
Q 1250 -91 836 529 
Q 422 1150 422 2328 
Q 422 3509 836 4129 
Q 1250 4750 2034 4750 
z
" transform="scale(0.015625)"/>
       </defs>
       <use xlink:href="#DejaVuSans-30"/>
      </g>
     </g>
    </g>
    <g id="ytick_2">
     <g id="line2d_17">
      <g>
       <use xlink:href="#m69e35bfad4" x="44.57" y="389.891817" style="stroke: #000000; stroke-width: 0.8"/>
      </g>
     </g>
     <g id="text_18">
      <!-- 5 -->
      <g transform="translate(31.2075 393.691036) scale(0.1 -0.1)">
       <defs>
        <path id="DejaVuSans-35" d="M 691 4666 
L 3169 4666 
L 3169 4134 
L 1269 4134 
L 1269 2991 
Q 1406 3038 1543 3061 
Q 1681 3084 1819 3084 
Q 2600 3084 3056 2656 
Q 3513 2228 3513 1497 
Q 3513 744 3044 326 
Q 2575 -91 1722 -91 
Q 1428 -91 1123 -41 
Q 819 9 494 109 
L 494 744 
Q 775 591 1075 516 
Q 1375 441 1709 441 
Q 2250 441 2565 725 
Q 2881 1009 2881 1497 
Q 2881 1984 2565 2268 
Q 2250 2553 1709 2553 
Q 1456 2553 1204 2497 
Q 953 2441 691 2322 
L 691 4666 
z
" transform="scale(0.015625)"/>
       </defs>
       <use xlink:href="#DejaVuSans-35"/>
      </g>
     </g>
    </g>
    <g id="ytick_3">
     <g id="line2d_18">
      <g>
       <use xlink:href="#m69e35bfad4" x="44.57" y="341.143634" style="stroke: #000000; stroke-width: 0.8"/>
      </g>
     </g>
     <g id="text_19">
      <!-- 10 -->
      <g transform="translate(24.845 344.942853) scale(0.1 -0.1)">
       <defs>
        <path id="DejaVuSans-31" d="M 794 531 
L 1825 531 
L 1825 4091 
L 703 3866 
L 703 4441 
L 1819 4666 
L 2450 4666 
L 2450 531 
L 3481 531 
L 3481 0 
L 794 0 
L 794 531 
z
" transform="scale(0.015625)"/>
       </defs>
       <use xlink:href="#DejaVuSans-31"/>
       <use xlink:href="#DejaVuSans-30" transform="translate(63.623047 0)"/>
      </g>
     </g>
    </g>
    <g id="ytick_4">
     <g id="line2d_19">
      <g>
       <use xlink:href="#m69e35bfad4" x="44.57" y="292.395452" style="stroke: #000000; stroke-width: 0.8"/>
      </g>
     </g>
     <g id="text_20">
      <!-- 15 -->
      <g transform="translate(24.845 296.19467) scale(0.1 -0.1)">
       <use xlink:href="#DejaVuSans-31"/>
       <use xlink:href="#DejaVuSans-35" transform="translate(63.623047 0)"/>
      </g>
     </g>
    </g>
    <g id="ytick_5">
     <g id="line2d_20">
      <g>
       <use xlink:href="#m69e35bfad4" x="44.57" y="243.647269" style="stroke: #000000; stroke-width: 0.8"/>
      </g>
     </g>
     <g id="text_21">
      <!-- 20 -->
      <g transform="translate(24.845 247.446488) scale(0.1 -0.1)">
       <defs>
        <path id="DejaVuSans-32" d="M 1228 531 
L 3431 531 
L 3431 0 
L 469 0 
L 469 531 
Q 828 903 1448 1529 
Q 2069 2156 2228 2338 
Q 2531 2678 2651 2914 
Q 2772 3150 2772 3378 
Q 2772 3750 2511 3984 
Q 2250 4219 1831 4219 
Q 1534 4219 1204 4116 
Q 875 4013 500 3803 
L 500 4441 
Q 881 4594 1212 4672 
Q 1544 4750 1819 4750 
Q 2544 4750 2975 4387 
Q 3406 4025 3406 3419 
Q 3406 3131 3298 2873 
Q 3191 2616 2906 2266 
Q 2828 2175 2409 1742 
Q 1991 1309 1228 531 
z
" transform="scale(0.015625)"/>
       </defs>
       <use xlink:href="#DejaVuSans-32"/>
       <use xlink:href="#DejaVuSans-30" transform="translate(63.623047 0)"/>
      </g>
     </g>
    </g>
    <g id="ytick_6">
     <g id="line2d_21">
      <g>
       <use xlink:href="#m69e35bfad4" x="44.57" y="194.899086" style="stroke: #000000; stroke-width: 0.8"/>
      </g>
     </g>
     <g id="text_22">
      <!-- 25 -->
      <g transform="translate(24.845 198.698305) scale(0.1 -0.1)">
       <use xlink:href="#DejaVuSans-32"/>
       <use xlink:href="#DejaVuSans-35" transform="translate(63.623047 0)"/>
      </g>
     </g>
    </g>
    <g id="ytick_7">
     <g id="line2d_22">
      <g>
       <use xlink:href="#m69e35bfad4" x="44.57" y="146.150903" style="stroke: #000000; stroke-width: 0.8"/>
      </g>
     </g>
     <g id="text_23">
      <!-- 30 -->
      <g transform="translate(24.845 149.950122) scale(0.1 -0.1)">
       <defs>
        <path id="DejaVuSans-33" d="M 2597 2516 
Q 3050 2419 3304 2112 
Q 3559 1806 3559 1356 
Q 3559 666 3084 287 
Q 2609 -91 1734 -91 
Q 1441 -91 1130 -33 
Q 819 25 488 141 
L 488 750 
Q 750 597 1062 519 
Q 1375 441 1716 441 
Q 2309 441 2620 675 
Q 2931 909 2931 1356 
Q 2931 1769 2642 2001 
Q 2353 2234 1838 2234 
L 1294 2234 
L 1294 2753 
L 1863 2753 
Q 2328 2753 2575 2939 
Q 2822 3125 2822 3475 
Q 2822 3834 2567 4026 
Q 2313 4219 1838 4219 
Q 1578 4219 1281 4162 
Q 984 4106 628 3988 
L 628 4550 
Q 988 4650 1302 4700 
Q 1616 4750 1894 4750 
Q 2613 4750 3031 4423 
Q 3450 4097 3450 3541 
Q 3450 3153 3228 2886 
Q 3006 2619 2597 2516 
z
" transform="scale(0.015625)"/>
       </defs>
       <use xlink:href="#DejaVuSans-33"/>
       <use xlink:href="#DejaVuSans-30" transform="translate(63.623047 0)"/>
      </g>
     </g>
    </g>
    <g id="ytick_8">
     <g id="line2d_23">
      <g>
       <use xlink:href="#m69e35bfad4" x="44.57" y="97.402721" style="stroke: #000000; stroke-width: 0.8"/>
      </g>
     </g>
     <g id="text_24">
      <!-- 35 -->
      <g transform="translate(24.845 101.201939) scale(0.1 -0.1)">
       <use xlink:href="#DejaVuSans-33"/>
       <use xlink:href="#DejaVuSans-35" transform="translate(63.623047 0)"/>
      </g>
     </g>
    </g>
    <g id="ytick_9">
     <g id="line2d_24">
      <g>
       <use xlink:href="#m69e35bfad4" x="44.57" y="48.654538" style="stroke: #000000; stroke-width: 0.8"/>
      </g>
     </g>
     <g id="text_25">
      <!-- 40 -->
      <g transform="translate(24.845 52.453757) scale(0.1 -0.1)">
       <defs>
        <path id="DejaVuSans-34" d="M 2419 4116 
L 825 1625 
L 2419 1625 
L 2419 4116 
z
M 2253 4666 
L 3047 4666 
L 3047 1625 
L 3713 1625 
L 3713 1100 
L 3047 1100 
L 3047 0 
L 2419 0 
L 2419 1100 
L 313 1100 
L 313 1709 
L 2253 4666 
z
" transform="scale(0.015625)"/>
       </defs>
       <use xlink:href="#DejaVuSans-34"/>
       <use xlink:href="#DejaVuSans-30" transform="translate(63.623047 0)"/>
      </g>
     </g>
    </g>
    <g id="text_26">
     <!-- Voices at 44.1kHz -->
     <g transform="translate(18.765313 277.286563) rotate(-90) scale(0.1 -0.1)">
      <defs>
       <path id="DejaVuSans-2e" d="M 684 794 
L 1344 794 
L 1344 0 
L 684 0 
L 684 794 
z
" transform="scale(0.015625)"/>
       <path id="DejaVuSans-48" d="M 628 4666 
L 1259 4666 
L 1259 2753 
L 3553 2753 
L 3553 4666 
L 4184 4666 
L 4184 0 
L 3553 0 
L 3553 2222 
L 1259 2222 
L 1259 0 
L 628 0 
L 628 4666 
z
" transform="scale(0.015625)"/>
       <path id="DejaVuSans-7a" d="M 353 3500 
L 3084 3500 
L 3084 2975 
L 922 459 
L 3084 459 
L 3084 0 
L 275 0 
L 275 525 
L 2438 3041 
L 353 3041 
L 353 3500 
z
" transform="scale(0.015625)"/>
      </defs>
      <use xlink:href="#DejaVuSans-56"/>
      <use xlink:href="#DejaVuSans-6f" transform="translate(60.658203 0)"/>
      <use xlink:href="#DejaVuSans-69" transform="translate(121.839844 0)"/>
      <use xlink:href="#DejaVuSans-63" transform="translate(149.623047 0)"/>
      <use xlink:href="#DejaVuSans-65" transform="translate(204.603516 0)"/>
      <use xlink:href="#DejaVuSans-73" transform="translate(266.126953 0)"/>
      <use xlink:href="#DejaVuSans-20" transform="translate(318.226562 0)"/>
      <use xlink:href="#DejaVuSans-61" transform="translate(350.013672 0)"/>
      <use xlink:href="#DejaVuSans-74" transform="translate(411.292969 0)"/>
      <use xlink:href="#DejaVuSans-20" transform="translate(450.501953 0)"/>
      <use xlink:href="#DejaVuSans-34" transform="translate(482.289062 0)"/>
      <use xlink:href="#DejaVuSans-34" transform="translate(545.912109 0)"/>
      <use xlink:href="#DejaVuSans-2e" transform="translate(609.535156 0)"/>
      <use xlink:href="#DejaVuSans-31" transform="translate(641.322266 0)"/>
      <use xlink:href="#DejaVuSans-6b" transform="translate(704.945312 0)"/>
      <use xlink:href="#DejaVuSans-48" transform="translate(762.855469 0)"/>
      <use xlink:href="#DejaVuSans-7a" transform="translate(838.050781 0)"/>
     </g>
    </g>
   </g>
   <g id="patch_33">
    <path d="M 44.57 438.64 
L 44.57 26.88 
" style="fill: none; stroke: #000000; stroke-width: 0.8; stroke-linejoin: miter; stroke-linecap: square"/>
   </g>
   <g id="patch_34">
    <path d="M 745.2 438.64 
L 745.2 26.88 
" style="fill: none; stroke: #000000; stroke-width: 0.8; stroke-linejoin: miter; stroke-linecap: square"/>
   </g>
   <g id="patch_35">
    <path d="M 44.57 438.64 
L 745.2 438.64 
" style="fill: none; stroke: #000000; stroke-width: 0.8; stroke-linejoin: miter; stroke-linecap: square"/>
   </g>
   <g id="patch_36">
    <path d="M 44.57 26.88 
L 745.2 26.88 
" style="fill: none; stroke: #000000; stroke-width: 0.8; stroke-linejoin: miter; stroke-linecap: square"/>
   </g>
   <g id="text_27">
    <!-- Braids max voices per core at 44.1kHz -->
    <g transform="translate(44.57 20.88) scale(0.12 -0.12)">
     <defs>
      <path id="DejaVuSans-78" d="M 3513 3500 
L 2247 1797 
L 3578 0 
L 2900 0 
L 1881 1375 
L 863 0 
L 184 0 
L 1544 1831 
L 300 3500 
L 978 3500 
L 1906 2253 
L 2834 3500 
L 3513 3500 
z
" transform="scale(0.015625)"/>
      <path id="DejaVuSans-76" d="M 191 3500 
L 800 3500 
L 1894 563 
L 2988 3500 
L 3597 3500 
L 2284 0 
L 1503 0 
L 191 3500 
z
" transform="scale(0.015625)"/>
     </defs>
     <use xlink:href="#DejaVuSans-42"/>
     <use xlink:href="#DejaVuSans-72" transform="translate(68.603516 0)"/>
     <use xlink:href="#DejaVuSans-61" transform="translate(109.716797 0)"/>
     <use xlink:href="#DejaVuSans-69" transform="translate(170.996094 0)"/>
     <use xlink:href="#DejaVuSans-64" transform="translate(198.779297 0)"/>
     <use xlink:href="#DejaVuSans-73" transform="translate(262.255859 0)"/>
     <use xlink:href="#DejaVuSans-20" transform="translate(314.355469 0)"/>
     <use xlink:href="#DejaVuSans-6d" transform="translate(346.142578 0)"/>
     <use xlink:href="#DejaVuSans-61" transform="translate(443.554688 0)"/>
     <use xlink:href="#DejaVuSans-78" transform="translate(504.833984 0)"/>
     <use xlink:href="#DejaVuSans-20" transform="translate(564.013672 0)"/>
     <use xlink:href="#DejaVuSans-76" transform="translate(595.800781 0)"/>
     <use xlink:href="#DejaVuSans-6f" transform="translate(654.980469 0)"/>
     <use xlink:href="#DejaVuSans-69" transform="translate(716.162109 0)"/>
     <use xlink:href="#DejaVuSans-63" transform="translate(743.945312 0)"/>
     <use xlink:href="#DejaVuSans-65" transform="translate(798.925781 0)"/>
     <use xlink:href="#DejaVuSans-73" transform="translate(860.449219 0)"/>
     <use xlink:href="#DejaVuSans-20" transform="translate(912.548828 0)"/>
     <use xlink:href="#DejaVuSans-70" transform="translate(944.335938 0)"/>
     <use xlink:href="#DejaVuSans-65" transform="translate(1007.8125 0)"/>
     <use xlink:href="#DejaVuSans-72" transform="translate(1069.335938 0)"/>
     <use xlink:href="#DejaVuSans-20" transform="translate(1110.449219 0)"/>
     <use xlink:href="#DejaVuSans-63" transform="translate(1142.236328 0)"/>
     <use xlink:href="#DejaVuSans-6f" transform="translate(1197.216797 0)"/>
     <use xlink:href="#DejaVuSans-72" transform="translate(1258.398438 0)"/>
     <use xlink:href="#DejaVuSans-65" transform="translate(1297.261719 0)"/>
     <use xlink:href="#DejaVuSans-20" transform="translate(1358.785156 0)"/>
     <use xlink:href="#DejaVuSans-61" transform="translate(1390.572266 0)"/>
     <use xlink:href="#DejaVuSans-74" transform="translate(1451.851562 0)"/>
     <use xlink:href="#DejaVuSans-20" transform="translate(1491.060547 0)"/>
     <use xlink:href="#DejaVuSans-34" transform="translate(1522.847656 0)"/>
     <use xlink:href="#DejaVuSans-34" transform="translate(1586.470703 0)"/>
     <use xlink:href="#DejaVuSans-2e" transform="translate(1650.09375 0)"/>
     <use xlink:href="#DejaVuSans-31" transform="translate(1681.880859 0)"/>
     <use xlink:href="#DejaVuSans-6b" transform="translate(1745.503906 0)"/>
     <use xlink:href="#DejaVuSans-48" transform="translate(1803.414062 0)"/>
     <use xlink:href="#DejaVuSans-7a" transform="translate(1878.609375 0)"/>
    </g>
   </g>
   <g id="legend_1">
    <g id="patch_37">
     <path d="M 321.731875 78.914375 
L 468.038125 78.914375 
Q 470.038125 78.914375 470.038125 76.914375 
L 470.038125 33.88 
Q 470.038125 31.88 468.038125 31.88 
L 321.731875 31.88 
Q 319.731875 31.88 319.731875 33.88 
L 319.731875 76.914375 
Q 319.731875 78.914375 321.731875 78.914375 
z
" style="fill: #ffffff; opacity: 0.8; stroke: #cccccc; stroke-linejoin: miter"/>
    </g>
    <g id="text_28">
     <!-- Sub Category -->
     <g transform="translate(360.938125 43.478437) scale(0.1 -0.1)">
      <defs>
       <path id="DejaVuSans-79" d="M 2059 -325 
Q 1816 -950 1584 -1140 
Q 1353 -1331 966 -1331 
L 506 -1331 
L 506 -850 
L 844 -850 
Q 1081 -850 1212 -737 
Q 1344 -625 1503 -206 
L 1606 56 
L 191 3500 
L 800 3500 
L 1894 763 
L 2988 3500 
L 3597 3500 
L 2059 -325 
z
" transform="scale(0.015625)"/>
      </defs>
      <use xlink:href="#DejaVuSans-53"/>
      <use xlink:href="#DejaVuSans-75" transform="translate(63.476562 0)"/>
      <use xlink:href="#DejaVuSans-62" transform="translate(126.855469 0)"/>
      <use xlink:href="#DejaVuSans-20" transform="translate(190.332031 0)"/>
      <use xlink:href="#DejaVuSans-43" transform="translate(222.119141 0)"/>
      <use xlink:href="#DejaVuSans-61" transform="translate(291.943359 0)"/>
      <use xlink:href="#DejaVuSans-74" transform="translate(353.222656 0)"/>
      <use xlink:href="#DejaVuSans-65" transform="translate(392.431641 0)"/>
      <use xlink:href="#DejaVuSans-67" transform="translate(453.955078 0)"/>
      <use xlink:href="#DejaVuSans-6f" transform="translate(517.431641 0)"/>
      <use xlink:href="#DejaVuSans-72" transform="translate(578.613281 0)"/>
      <use xlink:href="#DejaVuSans-79" transform="translate(619.726562 0)"/>
     </g>
    </g>
    <g id="patch_38">
     <path d="M 323.731875 58.156563 
L 343.731875 58.156563 
L 343.731875 51.156563 
L 323.731875 51.156563 
z
" style="fill: #1f77b4"/>
    </g>
    <g id="text_29">
     <!-- RP2040 (200Mhz) -->
     <g transform="translate(351.731875 58.156563) scale(0.1 -0.1)">
      <defs>
       <path id="DejaVuSans-52" d="M 2841 2188 
Q 3044 2119 3236 1894 
Q 3428 1669 3622 1275 
L 4263 0 
L 3584 0 
L 2988 1197 
Q 2756 1666 2539 1819 
Q 2322 1972 1947 1972 
L 1259 1972 
L 1259 0 
L 628 0 
L 628 4666 
L 2053 4666 
Q 2853 4666 3247 4331 
Q 3641 3997 3641 3322 
Q 3641 2881 3436 2590 
Q 3231 2300 2841 2188 
z
M 1259 4147 
L 1259 2491 
L 2053 2491 
Q 2509 2491 2742 2702 
Q 2975 2913 2975 3322 
Q 2975 3731 2742 3939 
Q 2509 4147 2053 4147 
L 1259 4147 
z
" transform="scale(0.015625)"/>
       <path id="DejaVuSans-28" d="M 1984 4856 
Q 1566 4138 1362 3434 
Q 1159 2731 1159 2009 
Q 1159 1288 1364 580 
Q 1569 -128 1984 -844 
L 1484 -844 
Q 1016 -109 783 600 
Q 550 1309 550 2009 
Q 550 2706 781 3412 
Q 1013 4119 1484 4856 
L 1984 4856 
z
" transform="scale(0.015625)"/>
       <path id="DejaVuSans-29" d="M 513 4856 
L 1013 4856 
Q 1481 4119 1714 3412 
Q 1947 2706 1947 2009 
Q 1947 1309 1714 600 
Q 1481 -109 1013 -844 
L 513 -844 
Q 928 -128 1133 580 
Q 1338 1288 1338 2009 
Q 1338 2731 1133 3434 
Q 928 4138 513 4856 
z
" transform="scale(0.015625)"/>
      </defs>
      <use xlink:href="#DejaVuSans-52"/>
      <use xlink:href="#DejaVuSans-50" transform="translate(69.482422 0)"/>
      <use xlink:href="#DejaVuSans-32" transform="translate(129.785156 0)"/>
      <use xlink:href="#DejaVuSans-30" transform="translate(193.408203 0)"/>
      <use xlink:href="#DejaVuSans-34" transform="translate(257.03125 0)"/>
      <use xlink:href="#DejaVuSans-30" transform="translate(320.654297 0)"/>
      <use xlink:href="#DejaVuSans-20" transform="translate(384.277344 0)"/>
      <use xlink:href="#DejaVuSans-28" transform="translate(416.064453 0)"/>
      <use xlink:href="#DejaVuSans-32" transform="translate(455.078125 0)"/>
      <use xlink:href="#DejaVuSans-30" transform="translate(518.701172 0)"/>
      <use xlink:href="#DejaVuSans-30" transform="translate(582.324219 0)"/>
      <use xlink:href="#DejaVuSans-4d" transform="translate(645.947266 0)"/>
      <use xlink:href="#DejaVuSans-68" transform="translate(732.226562 0)"/>
      <use xlink:href="#DejaVuSans-7a" transform="translate(795.605469 0)"/>
      <use xlink:href="#DejaVuSans-29" transform="translate(848.095703 0)"/>
     </g>
    </g>
    <g id="patch_39">
     <path d="M 323.731875 72.834688 
L 343.731875 72.834688 
L 343.731875 65.834688 
L 323.731875 65.834688 
z
" style="fill: #ff7f0e"/>
    </g>
    <g id="text_30">
     <!-- RP2350 (ARM 150Mhz) -->
     <g transform="translate(351.731875 72.834688) scale(0.1 -0.1)">
      <defs>
       <path id="DejaVuSans-41" d="M 2188 4044 
L 1331 1722 
L 3047 1722 
L 2188 4044 
z
M 1831 4666 
L 2547 4666 
L 4325 0 
L 3669 0 
L 3244 1197 
L 1141 1197 
L 716 0 
L 50 0 
L 1831 4666 
z
" transform="scale(0.015625)"/>
      </defs>
      <use xlink:href="#DejaVuSans-52"/>
      <use xlink:href="#DejaVuSans-50" transform="translate(69.482422 0)"/>
      <use xlink:href="#DejaVuSans-32" transform="translate(129.785156 0)"/>
      <use xlink:href="#DejaVuSans-33" transform="translate(193.408203 0)"/>
      <use xlink:href="#DejaVuSans-35" transform="translate(257.03125 0)"/>
      <use xlink:href="#DejaVuSans-30" transform="translate(320.654297 0)"/>
      <use xlink:href="#DejaVuSans-20" transform="translate(384.277344 0)"/>
      <use xlink:href="#DejaVuSans-28" transform="translate(416.064453 0)"/>
      <use xlink:href="#DejaVuSans-41" transform="translate(455.078125 0)"/>
      <use xlink:href="#DejaVuSans-52" transform="translate(523.486328 0)"/>
      <use xlink:href="#DejaVuSans-4d" transform="translate(592.96875 0)"/>
      <use xlink:href="#DejaVuSans-20" transform="translate(679.248047 0)"/>
      <use xlink:href="#DejaVuSans-31" transform="translate(711.035156 0)"/>
      <use xlink:href="#DejaVuSans-35" transform="translate(774.658203 0)"/>
      <use xlink:href="#DejaVuSans-30" transform="translate(838.28125 0)"/>
      <use xlink:href="#DejaVuSans-4d" transform="translate(901.904297 0)"/>
      <use xlink:href="#DejaVuSans-68" transform="translate(988.183594 0)"/>
      <use xlink:href="#DejaVuSans-7a" transform="translate(1051.5625 0)"/>
      <use xlink:href="#DejaVuSans-29" transform="translate(1104.052734 0)"/>
     </g>
    </g>
   </g>
  </g>
 </g>
 <defs>
  <clipPath id="pbd9fe27b3d">
   <rect x="44.57" y="26.88" width="700.63" height="411.76"/>
  </clipPath>
 </defs>
</svg>
