<?xml version="1.0" encoding="UTF-8" standalone="no"?>
<svg
   version="1.1"
   id="svg851"
   xml:space="preserve"
   width="10cm"
   height="4cm"
   viewBox="0 0 377.95275 151.1811"
   sodipodi:docname="launching_soon_red.svg"
   inkscape:version="1.1.2 (0a00cf5339, 2022-02-04)"
   xmlns:inkscape="http://www.inkscape.org/namespaces/inkscape"
   xmlns:sodipodi="http://sodipodi.sourceforge.net/DTD/sodipodi-0.dtd"
   xmlns="http://www.w3.org/2000/svg"
   xmlns:svg="http://www.w3.org/2000/svg"
   xmlns:rdf="http://www.w3.org/1999/02/22-rdf-syntax-ns#"
   xmlns:cc="http://creativecommons.org/ns#"
   xmlns:dc="http://purl.org/dc/elements/1.1/"><metadata
     id="metadata857"><rdf:RDF><cc:Work
         rdf:about=""><dc:format>image/svg+xml</dc:format><dc:type
           rdf:resource="http://purl.org/dc/dcmitype/StillImage" /></cc:Work></rdf:RDF></metadata><defs
     id="defs855" /><sodipodi:namedview
     pagecolor="#ffffff"
     bordercolor="#666666"
     borderopacity="1"
     objecttolerance="10"
     gridtolerance="10"
     guidetolerance="10"
     inkscape:pageopacity="0"
     inkscape:pageshadow="2"
     inkscape:window-width="1918"
     inkscape:window-height="1037"
     id="namedview853"
     showgrid="false"
     inkscape:zoom="1.6147833"
     inkscape:cx="206.8389"
     inkscape:cy="86.698941"
     inkscape:window-x="1"
     inkscape:window-y="22"
     inkscape:window-maximized="0"
     inkscape:current-layer="g865"
     inkscape:pagecheckerboard="0"
     units="cm"
     fit-margin-top="1"
     fit-margin-left="1"
     fit-margin-right="1"
     fit-margin-bottom="1"
     inkscape:document-units="cm"
     width="10cm" /><g
     id="g859"
     inkscape:groupmode="layer"
     inkscape:label="new order"
     transform="matrix(1.3333333,0,0,-1.3333333,5.0351154,2638.7376)"><g
       id="g865"
       transform="matrix(0.37297468,0,0,0.37297468,252.81496,1868.1093)"><path
         d="M 51.778703,140.70642 V 19.120772 H -666.84595 v 65.509057 h 18.64455 V 38.730712 H 33.134163 V 140.71987"
         style="fill:#aa0000;fill-opacity:1;fill-rule:nonzero;stroke:none;stroke-width:1.14384"
         id="path867"
         sodipodi:nodetypes="cccccccc" /><path
         d="m -666.84595,100.66283 v 170.0066 H 51.778702 V 156.30363 H 33.134162 V 251.0595 H -648.2014 V 100.68955"
         style="fill:#aa0000;fill-opacity:1;fill-rule:nonzero;stroke:none;stroke-width:1.14384"
         id="path867-3"
         sodipodi:nodetypes="cccccccc" /><g
         aria-label="LAUNCHING
SOON"
         transform="scale(1,-1)"
         id="text3529"
         style="font-size:110.406px;line-height:0.85;text-align:center;letter-spacing:0px;word-spacing:0px;text-anchor:middle;stroke-width:2.3001px;fill:#aa0000"><path
           d="m -556.94985,-156.13104 h -51.78041 v -64.80832 h 12.9175 v 51.89082 h 38.86291 z"
           style="font-family:'Zeroes One';-inkscape-font-specification:'Zeroes One, Normal';fill:#aa0000"
           id="path23451" /><path
           d="m -483.6404,-156.13104 h -13.02791 v -25.94541 h -38.86291 v 25.94541 h -12.9175 v -51.89082 q 0,-5.63071 3.53299,-9.27411 3.6434,-3.64339 9.38451,-3.64339 h 38.86291 q 4.63705,0 8.83248,4.19542 4.19543,4.08503 4.19543,8.72208 z m -13.02791,-38.86291 v -13.02791 h -38.86291 v 13.02791 z"
           style="font-family:'Zeroes One';-inkscape-font-specification:'Zeroes One, Normal';fill:#aa0000"
           id="path23453" /><path
           d="m -408.0125,-169.04854 q 0,5.74111 -3.6434,9.38451 -3.6434,3.53299 -9.38451,3.53299 h -38.86291 q -5.63071,0 -9.27411,-3.6434 -3.64339,-3.6434 -3.64339,-9.2741 v -51.89082 h 12.9175 v 51.89082 h 38.86291 v -51.89082 h 13.02791 z"
           style="font-family:'Zeroes One';-inkscape-font-specification:'Zeroes One, Normal';fill:#aa0000"
           id="path23455" /><path
           d="m -330.72842,-156.13104 h -8.05963 l -43.72078,-42.17509 v 42.17509 h -13.02791 v -64.80832 h 8.17005 l 43.72077,42.17509 v -42.17509 h 12.9175 z"
           style="font-family:'Zeroes One';-inkscape-font-specification:'Zeroes One, Normal';fill:#aa0000"
           id="path23457" /><path
           d="m -257.52938,-156.13104 h -49.6827 q -12.9175,0 -12.9175,-12.9175 v -38.97332 q 0,-5.4099 3.7538,-9.1637 3.75381,-3.7538 9.1637,-3.7538 h 49.6827 v 12.9175 h -49.6827 v 38.97332 h 49.6827 z"
           style="font-family:'Zeroes One';-inkscape-font-specification:'Zeroes One, Normal';fill:#aa0000"
           id="path23459" /><path
           d="m -183.55739,-156.13104 h -12.9175 v -25.94541 h -36.65479 v 25.94541 h -13.02791 v -64.80832 h 13.02791 v 25.94541 h 36.65479 v -25.94541 h 12.9175 z"
           style="font-family:'Zeroes One';-inkscape-font-specification:'Zeroes One, Normal';fill:#aa0000"
           id="path23461" /><path
           d="m -158.93701,-156.13104 h -12.91751 v -64.80832 h 12.91751 z"
           style="font-family:'Zeroes One';-inkscape-font-specification:'Zeroes One, Normal';fill:#aa0000"
           id="path23463" /><path
           d="m -81.652854,-156.13104 h -8.059638 l -43.720778,-42.17509 v 42.17509 h -13.02791 v -64.80832 h 8.17005 l 43.720774,42.17509 v -42.17509 h 12.917502 z"
           style="font-family:'Zeroes One';-inkscape-font-specification:'Zeroes One, Normal';fill:#aa0000"
           id="path23465" /><path
           d="M -4.8103902,-156.13104 H -56.701209 q -12.917502,0 -12.917502,-12.9175 v -38.97332 q 0,-5.4099 3.753804,-9.1637 3.753804,-3.7538 9.163698,-3.7538 h 49.6826989 v 12.9175 H -56.701209 v 38.97332 h 38.862911 v -13.02791 h -25.835004 v -12.9175 h 38.8629118 z"
           style="font-family:'Zeroes One';-inkscape-font-specification:'Zeroes One, Normal';fill:#aa0000"
           id="path23467" /><path
           d="m -388.91223,-74.242107 q 0,5.741112 -3.64339,9.38451 -3.533,3.532992 -9.38451,3.532992 h -46.26012 v -12.917502 h 46.26012 v -13.027908 h -34.44668 q -5.74111,0 -9.38451,-3.532992 -3.53299,-3.643398 -3.53299,-9.384513 v -13.0279 q 0,-5.4099 3.75381,-9.1637 3.7538,-3.75381 9.16369,-3.75381 h 43.05834 v 12.91751 h -43.05834 v 13.0279 h 34.44668 q 5.6307,0 9.2741,3.753807 3.7538,3.643398 3.7538,9.163698 z"
           style="font-family:'Zeroes One';-inkscape-font-specification:'Zeroes One, Normal';fill:#aa0000"
           id="path23469" /><path
           d="m -313.50494,-93.673563 q 0,13.80075 -9.82613,23.626884 -9.82614,9.826134 -23.62689,9.826134 -13.91115,0 -23.73729,-9.826134 -9.82613,-9.826134 -9.82613,-23.626884 0,-13.911157 9.82613,-23.737287 9.82614,-9.82614 23.73729,-9.82614 13.80075,0 23.62689,9.82614 9.82613,9.82613 9.82613,23.737287 z m -12.9175,0 q 0,-8.501257 -6.07233,-14.573587 -5.96193,-6.07233 -14.46319,-6.07233 -8.50126,0 -14.57359,6.07233 -6.07233,6.07233 -6.07233,14.573587 0,8.390856 6.07233,14.463186 6.07233,6.07233 14.57359,6.07233 8.50126,0 14.46319,-6.07233 6.07233,-6.07233 6.07233,-14.463186 z"
           style="font-family:'Zeroes One';-inkscape-font-specification:'Zeroes One, Normal';fill:#aa0000"
           id="path23471" /><path
           d="m -236.11051,-93.673563 q 0,13.80075 -9.82614,23.626884 -9.82613,9.826134 -23.62688,9.826134 -13.91116,0 -23.73729,-9.826134 -9.82614,-9.826134 -9.82614,-23.626884 0,-13.911157 9.82614,-23.737287 9.82613,-9.82614 23.73729,-9.82614 13.80075,0 23.62688,9.82614 9.82614,9.82613 9.82614,23.737287 z m -12.91751,0 q 0,-8.501257 -6.07233,-14.573587 -5.96192,-6.07233 -14.46318,-6.07233 -8.50126,0 -14.57359,6.07233 -6.07233,6.07233 -6.07233,14.573587 0,8.390856 6.07233,14.463186 6.07233,6.07233 14.57359,6.07233 8.50126,0 14.46318,-6.07233 6.07233,-6.07233 6.07233,-14.463186 z"
           style="font-family:'Zeroes One';-inkscape-font-specification:'Zeroes One, Normal';fill:#aa0000"
           id="path23473" /><path
           d="m -162.35942,-61.324605 h -8.05964 l -43.72077,-42.175095 v 42.175095 h -13.02791 v -64.808325 h 8.17004 l 43.72078,42.175095 v -42.175095 h 12.9175 z"
           style="font-family:'Zeroes One';-inkscape-font-specification:'Zeroes One, Normal';fill:#aa0000"
           id="path23475" /></g><text
         xml:space="preserve"
         style="font-style:normal;font-weight:normal;font-size:80.4344px;line-height:1.25;font-family:sans-serif;letter-spacing:0px;word-spacing:0px;fill:#aa0000;fill-opacity:1;stroke:none;stroke-width:2.01086px;stroke-linecap:butt;stroke-linejoin:miter;stroke-opacity:1"
         x="-374.24207"
         y="111.79131"
         id="text23356"
         transform="scale(1,-1)"><tspan
           sodipodi:role="line"
           id="tspan23354"
           style="stroke-width:2.01086px;fill:#aa0000"
           x="-374.24207"
           y="111.79131"></tspan></text></g></g></svg>
